<svg width="470" height="128" viewBox="0 0 470 128" fill="none" xmlns="http://www.w3.org/2000/svg">
<path fill-rule="evenodd" clip-rule="evenodd" d="M5 9C5 5.13 8.13 2 12 2C15.87 2 19 5.13 19 9C19 13.17 14.58 18.92 12.77 21.11C12.37 21.59 11.64 21.59 11.24 21.11C9.42 18.92 5 13.17 5 9ZM9.5 9C9.5 10.38 10.62 11.5 12 11.5C13.38 11.5 14.5 10.38 14.5 9C14.5 7.62 13.38 6.5 12 6.5C10.62 6.5 9.5 7.62 9.5 9Z" fill="#FFF9BD"/>
<path d="M40.42 17L44.032 7.2H45.278L48.876 17H47.63L46.734 14.48H42.562L41.652 17H40.42ZM42.912 13.528H46.384L44.648 8.684L42.912 13.528ZM50.3329 17V7.2H53.7769C54.4675 7.2 55.0369 7.312 55.4849 7.536C55.9422 7.75067 56.2829 8.04933 56.5069 8.432C56.7309 8.80533 56.8429 9.22533 56.8429 9.692C56.8429 10.3267 56.6702 10.826 56.3249 11.19C55.9889 11.554 55.5829 11.806 55.1069 11.946C55.4709 12.0113 55.8022 12.156 56.1009 12.38C56.3995 12.604 56.6329 12.884 56.8009 13.22C56.9782 13.556 57.0669 13.9247 57.0669 14.326C57.0669 14.8207 56.9455 15.2733 56.7029 15.684C56.4602 16.0853 56.1009 16.4073 55.6249 16.65C55.1489 16.8833 54.5702 17 53.8889 17H50.3329ZM51.5089 11.484H53.6929C54.3182 11.484 54.7989 11.3393 55.1349 11.05C55.4709 10.7513 55.6389 10.3407 55.6389 9.818C55.6389 9.32333 55.4709 8.92667 55.1349 8.628C54.8082 8.32933 54.3135 8.18 53.6509 8.18H51.5089V11.484ZM51.5089 16.02H53.7629C54.4349 16.02 54.9529 15.866 55.3169 15.558C55.6809 15.2407 55.8629 14.802 55.8629 14.242C55.8629 13.6913 55.6715 13.2527 55.2889 12.926C54.9062 12.59 54.3882 12.422 53.7349 12.422H51.5089V16.02ZM63.0528 17.168C62.0914 17.168 61.2608 16.958 60.5608 16.538C59.8701 16.1087 59.3334 15.516 58.9508 14.76C58.5681 13.9947 58.3768 13.108 58.3768 12.1C58.3768 11.1013 58.5681 10.224 58.9508 9.468C59.3334 8.70267 59.8701 8.10533 60.5608 7.676C61.2608 7.24667 62.0914 7.032 63.0528 7.032C64.1728 7.032 65.0828 7.30267 65.7828 7.844C66.4921 8.376 66.9448 9.12267 67.1408 10.084H65.8388C65.6894 9.47733 65.3814 8.992 64.9147 8.628C64.4574 8.25467 63.8368 8.068 63.0528 8.068C62.3528 8.068 61.7414 8.23133 61.2188 8.558C60.6961 8.87533 60.2901 9.33733 60.0008 9.944C59.7208 10.5413 59.5808 11.26 59.5808 12.1C59.5808 12.94 59.7208 13.6633 60.0008 14.27C60.2901 14.8673 60.6961 15.3293 61.2188 15.656C61.7414 15.9733 62.3528 16.132 63.0528 16.132C63.8368 16.132 64.4574 15.9547 64.9147 15.6C65.3814 15.236 65.6894 14.7553 65.8388 14.158H67.1408C66.9448 15.1007 66.4921 15.838 65.7828 16.37C65.0828 16.902 64.1728 17.168 63.0528 17.168ZM76.834 17.168C75.8727 17.168 75.042 16.958 74.342 16.538C73.6513 16.1087 73.1147 15.516 72.732 14.76C72.3493 13.9947 72.158 13.108 72.158 12.1C72.158 11.1013 72.3493 10.224 72.732 9.468C73.1147 8.70267 73.6513 8.10533 74.342 7.676C75.042 7.24667 75.8727 7.032 76.834 7.032C77.954 7.032 78.864 7.30267 79.564 7.844C80.2733 8.376 80.726 9.12267 80.922 10.084H79.62C79.4707 9.47733 79.1627 8.992 78.696 8.628C78.2387 8.25467 77.618 8.068 76.834 8.068C76.134 8.068 75.5227 8.23133 75 8.558C74.4773 8.87533 74.0713 9.33733 73.782 9.944C73.502 10.5413 73.362 11.26 73.362 12.1C73.362 12.94 73.502 13.6633 73.782 14.27C74.0713 14.8673 74.4773 15.3293 75 15.656C75.5227 15.9733 76.134 16.132 76.834 16.132C77.618 16.132 78.2387 15.9547 78.696 15.6C79.1627 15.236 79.4707 14.7553 79.62 14.158H80.922C80.726 15.1007 80.2733 15.838 79.564 16.37C78.864 16.902 77.954 17.168 76.834 17.168ZM85.7062 17.168C85.0528 17.168 84.4648 17.0187 83.9422 16.72C83.4195 16.4213 83.0042 16.0013 82.6962 15.46C82.3975 14.9093 82.2482 14.2653 82.2482 13.528C82.2482 12.7907 82.4022 12.1513 82.7102 11.61C83.0182 11.0593 83.4335 10.6347 83.9562 10.336C84.4882 10.0373 85.0808 9.888 85.7342 9.888C86.3875 9.888 86.9755 10.0373 87.4982 10.336C88.0208 10.6347 88.4315 11.0593 88.7302 11.61C89.0382 12.1513 89.1922 12.7907 89.1922 13.528C89.1922 14.2653 89.0382 14.9093 88.7302 15.46C88.4222 16.0013 88.0022 16.4213 87.4702 16.72C86.9475 17.0187 86.3595 17.168 85.7062 17.168ZM85.7062 16.16C86.1075 16.16 86.4808 16.062 86.8262 15.866C87.1715 15.67 87.4515 15.376 87.6662 14.984C87.8808 14.592 87.9882 14.1067 87.9882 13.528C87.9882 12.9493 87.8808 12.464 87.6662 12.072C87.4608 11.68 87.1855 11.386 86.8402 11.19C86.4948 10.994 86.1262 10.896 85.7342 10.896C85.3328 10.896 84.9595 10.994 84.6142 11.19C84.2688 11.386 83.9888 11.68 83.7742 12.072C83.5595 12.464 83.4522 12.9493 83.4522 13.528C83.4522 14.1067 83.5595 14.592 83.7742 14.984C83.9888 15.376 84.2642 15.67 84.6002 15.866C84.9455 16.062 85.3142 16.16 85.7062 16.16ZM90.8273 17V10.056H91.8913L91.9753 11.064C92.1993 10.6907 92.498 10.4013 92.8713 10.196C93.2447 9.99067 93.6647 9.888 94.1313 9.888C94.682 9.888 95.1533 10 95.5453 10.224C95.9467 10.448 96.2547 10.7887 96.4693 11.246C96.712 10.826 97.0433 10.4947 97.4633 10.252C97.8927 10.0093 98.3547 9.888 98.8493 9.888C99.68 9.888 100.343 10.14 100.837 10.644C101.332 11.1387 101.579 11.904 101.579 12.94V17H100.417V13.066C100.417 12.3473 100.273 11.806 99.9833 11.442C99.694 11.078 99.2787 10.896 98.7373 10.896C98.1773 10.896 97.7107 11.1153 97.3373 11.554C96.9733 11.9833 96.7913 12.5993 96.7913 13.402V17H95.6153V13.066C95.6153 12.3473 95.4707 11.806 95.1813 11.442C94.892 11.078 94.4767 10.896 93.9353 10.896C93.3847 10.896 92.9227 11.1153 92.5493 11.554C92.1853 11.9833 92.0033 12.5993 92.0033 13.402V17H90.8273ZM103.351 20.08V10.056H104.415L104.527 11.204C104.751 10.868 105.068 10.5647 105.479 10.294C105.899 10.0233 106.431 9.888 107.075 9.888C107.765 9.888 108.367 10.0467 108.881 10.364C109.394 10.6813 109.791 11.1153 110.071 11.666C110.36 12.2167 110.505 12.842 110.505 13.542C110.505 14.242 110.36 14.8673 110.071 15.418C109.791 15.9593 109.389 16.3887 108.867 16.706C108.353 17.014 107.751 17.168 107.061 17.168C106.491 17.168 105.983 17.0513 105.535 16.818C105.096 16.5847 104.76 16.258 104.527 15.838V20.08H103.351ZM106.935 16.146C107.401 16.146 107.812 16.0387 108.167 15.824C108.521 15.6 108.801 15.292 109.007 14.9C109.212 14.508 109.315 14.0507 109.315 13.528C109.315 13.0053 109.212 12.548 109.007 12.156C108.801 11.764 108.521 11.4607 108.167 11.246C107.812 11.022 107.401 10.91 106.935 10.91C106.468 10.91 106.057 11.022 105.703 11.246C105.348 11.4607 105.068 11.764 104.863 12.156C104.657 12.548 104.555 13.0053 104.555 13.528C104.555 14.0507 104.657 14.508 104.863 14.9C105.068 15.292 105.348 15.6 105.703 15.824C106.057 16.0387 106.468 16.146 106.935 16.146ZM114.452 17.168C113.873 17.168 113.392 17.07 113.01 16.874C112.627 16.678 112.342 16.4167 112.156 16.09C111.969 15.7633 111.876 15.4087 111.876 15.026C111.876 14.3167 112.146 13.7707 112.688 13.388C113.229 13.0053 113.966 12.814 114.9 12.814H116.776V12.73C116.776 12.1233 116.617 11.666 116.3 11.358C115.982 11.0407 115.558 10.882 115.026 10.882C114.568 10.882 114.172 10.9987 113.836 11.232C113.509 11.456 113.304 11.7873 113.22 12.226H112.016C112.062 11.722 112.23 11.2973 112.52 10.952C112.818 10.6067 113.187 10.3453 113.626 10.168C114.064 9.98133 114.531 9.888 115.026 9.888C115.996 9.888 116.724 10.1493 117.21 10.672C117.704 11.1853 117.952 11.8713 117.952 12.73V17H116.902L116.832 15.754C116.636 16.146 116.346 16.482 115.964 16.762C115.59 17.0327 115.086 17.168 114.452 17.168ZM114.634 16.174C115.082 16.174 115.464 16.0573 115.782 15.824C116.108 15.5907 116.356 15.2873 116.524 14.914C116.692 14.5407 116.776 14.1487 116.776 13.738V13.724H114.998C114.307 13.724 113.817 13.8453 113.528 14.088C113.248 14.3213 113.108 14.6153 113.108 14.97C113.108 15.334 113.238 15.628 113.5 15.852C113.77 16.0667 114.148 16.174 114.634 16.174ZM119.716 17V10.056H120.78L120.85 11.302C121.074 10.8633 121.396 10.518 121.816 10.266C122.236 10.014 122.712 9.888 123.244 9.888C124.065 9.888 124.719 10.14 125.204 10.644C125.699 11.1387 125.946 11.904 125.946 12.94V17H124.77V13.066C124.77 11.6193 124.173 10.896 122.978 10.896C122.381 10.896 121.881 11.1153 121.48 11.554C121.088 11.9833 120.892 12.5993 120.892 13.402V17H119.716ZM128.279 20.08L130.001 16.328H129.595L126.837 10.056H128.111L130.407 15.46L132.843 10.056H134.061L129.511 20.08H128.279ZM133.516 18.666L134.328 15.572H135.546L134.328 18.666H133.516ZM141.684 17V8.516L140.102 8.866V8.054L142.076 7.2H142.874V17H141.684ZM144.788 17V16.174C145.451 15.6513 146.076 15.124 146.664 14.592C147.262 14.0507 147.789 13.5187 148.246 12.996C148.713 12.4733 149.077 11.96 149.338 11.456C149.609 10.952 149.744 10.4667 149.744 10C149.744 9.65467 149.684 9.33267 149.562 9.034C149.45 8.73533 149.264 8.49733 149.002 8.32C148.741 8.13333 148.386 8.04 147.938 8.04C147.509 8.04 147.15 8.138 146.86 8.334C146.571 8.52067 146.352 8.77267 146.202 9.09C146.062 9.40733 145.992 9.748 145.992 10.112H144.858C144.858 9.468 144.994 8.91733 145.264 8.46C145.535 7.99333 145.904 7.63867 146.37 7.396C146.837 7.15333 147.364 7.032 147.952 7.032C148.82 7.032 149.53 7.27933 150.08 7.774C150.64 8.25933 150.92 8.98733 150.92 9.958C150.92 10.5367 150.776 11.1107 150.486 11.68C150.197 12.24 149.828 12.786 149.38 13.318C148.932 13.8407 148.452 14.3307 147.938 14.788C147.434 15.2453 146.963 15.656 146.524 16.02H151.256V17H144.788ZM156.006 17.168C155.381 17.168 154.816 17.056 154.312 16.832C153.808 16.5987 153.402 16.2533 153.094 15.796C152.795 15.3387 152.637 14.7693 152.618 14.088H153.808C153.817 14.648 154.013 15.1333 154.396 15.544C154.779 15.9453 155.315 16.146 156.006 16.146C156.697 16.146 157.215 15.9547 157.56 15.572C157.915 15.1893 158.092 14.7273 158.092 14.186C158.092 13.7287 157.98 13.3553 157.756 13.066C157.541 12.7767 157.247 12.562 156.874 12.422C156.51 12.282 156.109 12.212 155.67 12.212H154.942V11.218H155.67C156.305 11.218 156.799 11.0733 157.154 10.784C157.518 10.4947 157.7 10.0887 157.7 9.566C157.7 9.12733 157.555 8.768 157.266 8.488C156.986 8.19867 156.566 8.054 156.006 8.054C155.465 8.054 155.031 8.21733 154.704 8.544C154.377 8.86133 154.195 9.26267 154.158 9.748H152.968C152.996 9.216 153.136 8.74467 153.388 8.334C153.649 7.92333 154.004 7.606 154.452 7.382C154.9 7.14867 155.418 7.032 156.006 7.032C156.641 7.032 157.168 7.144 157.588 7.368C158.017 7.592 158.339 7.89067 158.554 8.264C158.778 8.63733 158.89 9.048 158.89 9.496C158.89 9.99067 158.755 10.4433 158.484 10.854C158.213 11.2553 157.807 11.526 157.266 11.666C157.845 11.7873 158.325 12.0627 158.708 12.492C159.091 12.9213 159.282 13.486 159.282 14.186C159.282 14.7273 159.156 15.2267 158.904 15.684C158.661 16.132 158.297 16.4913 157.812 16.762C157.327 17.0327 156.725 17.168 156.006 17.168ZM164.89 17V7.2H170.952V8.166H166.066V11.582H170.532V12.534H166.066V16.034H170.952V17H164.89ZM175.032 17.168C174.453 17.168 173.973 17.07 173.59 16.874C173.207 16.678 172.923 16.4167 172.736 16.09C172.549 15.7633 172.456 15.4087 172.456 15.026C172.456 14.3167 172.727 13.7707 173.268 13.388C173.809 13.0053 174.547 12.814 175.48 12.814H177.356V12.73C177.356 12.1233 177.197 11.666 176.88 11.358C176.563 11.0407 176.138 10.882 175.606 10.882C175.149 10.882 174.752 10.9987 174.416 11.232C174.089 11.456 173.884 11.7873 173.8 12.226H172.596C172.643 11.722 172.811 11.2973 173.1 10.952C173.399 10.6067 173.767 10.3453 174.206 10.168C174.645 9.98133 175.111 9.888 175.606 9.888C176.577 9.888 177.305 10.1493 177.79 10.672C178.285 11.1853 178.532 11.8713 178.532 12.73V17H177.482L177.412 15.754C177.216 16.146 176.927 16.482 176.544 16.762C176.171 17.0327 175.667 17.168 175.032 17.168ZM175.214 16.174C175.662 16.174 176.045 16.0573 176.362 15.824C176.689 15.5907 176.936 15.2873 177.104 14.914C177.272 14.5407 177.356 14.1487 177.356 13.738V13.724H175.578C174.887 13.724 174.397 13.8453 174.108 14.088C173.828 14.3213 173.688 14.6153 173.688 14.97C173.688 15.334 173.819 15.628 174.08 15.852C174.351 16.0667 174.729 16.174 175.214 16.174ZM182.956 17.168C182.125 17.168 181.435 16.958 180.884 16.538C180.333 16.118 180.011 15.5487 179.918 14.83H181.122C181.197 15.194 181.388 15.5113 181.696 15.782C182.013 16.0433 182.438 16.174 182.97 16.174C183.465 16.174 183.829 16.0713 184.062 15.866C184.295 15.6513 184.412 15.3993 184.412 15.11C184.412 14.69 184.258 14.41 183.95 14.27C183.651 14.13 183.227 14.004 182.676 13.892C182.303 13.8173 181.929 13.71 181.556 13.57C181.183 13.43 180.87 13.234 180.618 12.982C180.366 12.7207 180.24 12.38 180.24 11.96C180.24 11.3533 180.464 10.8587 180.912 10.476C181.369 10.084 181.985 9.888 182.76 9.888C183.497 9.888 184.099 10.0747 184.566 10.448C185.042 10.812 185.317 11.3347 185.392 12.016H184.23C184.183 11.6613 184.029 11.386 183.768 11.19C183.516 10.9847 183.175 10.882 182.746 10.882C182.326 10.882 181.999 10.9707 181.766 11.148C181.542 11.3253 181.43 11.5587 181.43 11.848C181.43 12.128 181.575 12.3473 181.864 12.506C182.163 12.6647 182.564 12.8 183.068 12.912C183.497 13.0053 183.903 13.122 184.286 13.262C184.678 13.3927 184.995 13.5933 185.238 13.864C185.49 14.1253 185.616 14.508 185.616 15.012C185.625 15.6373 185.387 16.1553 184.902 16.566C184.426 16.9673 183.777 17.168 182.956 17.168ZM189.726 17C189.091 17 188.592 16.846 188.228 16.538C187.864 16.23 187.682 15.6747 187.682 14.872V11.05H186.478V10.056H187.682L187.836 8.39H188.858V10.056H190.902V11.05H188.858V14.872C188.858 15.3107 188.946 15.6093 189.124 15.768C189.301 15.9173 189.614 15.992 190.062 15.992H190.79V17H189.726ZM192.182 18.666L192.994 15.572H194.212L192.994 18.666H192.182ZM200.35 17V8.516L198.768 8.866V8.054L200.742 7.2H201.54V17H200.35ZM204.42 17L208.312 8.208H202.936V7.2H209.516V8.082L205.666 17H204.42ZM213.747 17C213.112 17 212.613 16.846 212.249 16.538C211.885 16.23 211.703 15.6747 211.703 14.872V11.05H210.499V10.056H211.703L211.857 8.39H212.879V10.056H214.923V11.05H212.879V14.872C212.879 15.3107 212.968 15.6093 213.145 15.768C213.322 15.9173 213.635 15.992 214.083 15.992H214.811V17H213.747ZM216.417 17V6.92H217.593V11.246C217.827 10.8167 218.158 10.4853 218.587 10.252C219.017 10.0093 219.483 9.888 219.987 9.888C220.79 9.888 221.434 10.14 221.919 10.644C222.405 11.1387 222.647 11.904 222.647 12.94V17H221.485V13.066C221.485 11.6193 220.902 10.896 219.735 10.896C219.129 10.896 218.62 11.1153 218.209 11.554C217.799 11.9833 217.593 12.5993 217.593 13.402V17H216.417ZM231.326 17.168C230.607 17.168 229.982 17.0373 229.45 16.776C228.918 16.5147 228.507 16.1507 228.218 15.684C227.929 15.2173 227.784 14.676 227.784 14.06H229.016C229.016 14.4427 229.105 14.7973 229.282 15.124C229.459 15.4413 229.716 15.698 230.052 15.894C230.397 16.0807 230.822 16.174 231.326 16.174C231.989 16.174 232.502 16.0153 232.866 15.698C233.23 15.3807 233.412 14.984 233.412 14.508C233.412 14.116 233.328 13.8033 233.16 13.57C232.992 13.3273 232.763 13.1313 232.474 12.982C232.194 12.8327 231.867 12.702 231.494 12.59C231.13 12.478 230.747 12.352 230.346 12.212C229.59 11.9507 229.03 11.6287 228.666 11.246C228.302 10.854 228.12 10.3453 228.12 9.72C228.111 9.19733 228.232 8.73533 228.484 8.334C228.736 7.92333 229.091 7.606 229.548 7.382C230.015 7.14867 230.565 7.032 231.2 7.032C231.825 7.032 232.367 7.14867 232.824 7.382C233.291 7.61533 233.65 7.93733 233.902 8.348C234.163 8.75867 234.299 9.22533 234.308 9.748H233.076C233.076 9.47733 233.006 9.21133 232.866 8.95C232.726 8.67933 232.511 8.46 232.222 8.292C231.942 8.124 231.587 8.04 231.158 8.04C230.626 8.03067 230.187 8.166 229.842 8.446C229.506 8.726 229.338 9.11333 229.338 9.608C229.338 10.028 229.455 10.35 229.688 10.574C229.931 10.798 230.267 10.9847 230.696 11.134C231.125 11.274 231.62 11.4373 232.18 11.624C232.647 11.792 233.067 11.988 233.44 12.212C233.813 12.436 234.103 12.7253 234.308 13.08C234.523 13.4347 234.63 13.8873 234.63 14.438C234.63 14.9047 234.509 15.348 234.266 15.768C234.023 16.1787 233.655 16.5147 233.16 16.776C232.675 17.0373 232.063 17.168 231.326 17.168ZM238.972 17C238.337 17 237.838 16.846 237.474 16.538C237.11 16.23 236.928 15.6747 236.928 14.872V11.05H235.724V10.056H236.928L237.082 8.39H238.104V10.056H240.148V11.05H238.104V14.872C238.104 15.3107 238.192 15.6093 238.37 15.768C238.547 15.9173 238.86 15.992 239.308 15.992H240.036V17H238.972ZM241.642 17V10.056H242.706L242.804 11.386C243.018 10.9287 243.345 10.5647 243.784 10.294C244.222 10.0233 244.764 9.888 245.408 9.888V11.12H245.086C244.675 11.12 244.297 11.1947 243.952 11.344C243.606 11.484 243.331 11.7267 243.126 12.072C242.92 12.4173 242.818 12.8933 242.818 13.5V17H241.642ZM249.59 17.168C248.927 17.168 248.339 17.0187 247.826 16.72C247.313 16.412 246.907 15.9873 246.608 15.446C246.319 14.9047 246.174 14.2653 246.174 13.528C246.174 12.8 246.319 12.1653 246.608 11.624C246.897 11.0733 247.299 10.6487 247.812 10.35C248.335 10.042 248.937 9.888 249.618 9.888C250.29 9.888 250.869 10.042 251.354 10.35C251.849 10.6487 252.227 11.0453 252.488 11.54C252.749 12.0347 252.88 12.5667 252.88 13.136C252.88 13.2387 252.875 13.3413 252.866 13.444C252.866 13.5467 252.866 13.6633 252.866 13.794H247.336C247.364 14.326 247.485 14.7693 247.7 15.124C247.924 15.4693 248.199 15.7307 248.526 15.908C248.862 16.0853 249.217 16.174 249.59 16.174C250.075 16.174 250.481 16.062 250.808 15.838C251.135 15.614 251.373 15.3107 251.522 14.928H252.684C252.497 15.572 252.138 16.1087 251.606 16.538C251.083 16.958 250.411 17.168 249.59 17.168ZM249.59 10.882C249.03 10.882 248.531 11.0547 248.092 11.4C247.663 11.736 247.415 12.2307 247.35 12.884H251.718C251.69 12.2587 251.475 11.7687 251.074 11.414C250.673 11.0593 250.178 10.882 249.59 10.882ZM257.561 17.168C256.898 17.168 256.31 17.0187 255.797 16.72C255.283 16.412 254.877 15.9873 254.579 15.446C254.289 14.9047 254.145 14.2653 254.145 13.528C254.145 12.8 254.289 12.1653 254.579 11.624C254.868 11.0733 255.269 10.6487 255.783 10.35C256.305 10.042 256.907 9.888 257.589 9.888C258.261 9.888 258.839 10.042 259.325 10.35C259.819 10.6487 260.197 11.0453 260.459 11.54C260.72 12.0347 260.851 12.5667 260.851 13.136C260.851 13.2387 260.846 13.3413 260.837 13.444C260.837 13.5467 260.837 13.6633 260.837 13.794H255.307C255.335 14.326 255.456 14.7693 255.671 15.124C255.895 15.4693 256.17 15.7307 256.497 15.908C256.833 16.0853 257.187 16.174 257.561 16.174C258.046 16.174 258.452 16.062 258.779 15.838C259.105 15.614 259.343 15.3107 259.493 14.928H260.655C260.468 15.572 260.109 16.1087 259.577 16.538C259.054 16.958 258.382 17.168 257.561 17.168ZM257.561 10.882C257.001 10.882 256.501 11.0547 256.063 11.4C255.633 11.736 255.386 12.2307 255.321 12.884H259.689C259.661 12.2587 259.446 11.7687 259.045 11.414C258.643 11.0593 258.149 10.882 257.561 10.882ZM264.921 17C264.286 17 263.787 16.846 263.423 16.538C263.059 16.23 262.877 15.6747 262.877 14.872V11.05H261.673V10.056H262.877L263.031 8.39H264.053V10.056H266.097V11.05H264.053V14.872C264.053 15.3107 264.142 15.6093 264.319 15.768C264.496 15.9173 264.809 15.992 265.257 15.992H265.985V17H264.921ZM267.378 18.666L268.19 15.572H269.408L268.19 18.666H267.378ZM277.701 17.168C276.982 17.168 276.357 17.0373 275.825 16.776C275.293 16.5147 274.882 16.1507 274.593 15.684C274.304 15.2173 274.159 14.676 274.159 14.06H275.391C275.391 14.4427 275.48 14.7973 275.657 15.124C275.834 15.4413 276.091 15.698 276.427 15.894C276.772 16.0807 277.197 16.174 277.701 16.174C278.364 16.174 278.877 16.0153 279.241 15.698C279.605 15.3807 279.787 14.984 279.787 14.508C279.787 14.116 279.703 13.8033 279.535 13.57C279.367 13.3273 279.138 13.1313 278.849 12.982C278.569 12.8327 278.242 12.702 277.869 12.59C277.505 12.478 277.122 12.352 276.721 12.212C275.965 11.9507 275.405 11.6287 275.041 11.246C274.677 10.854 274.495 10.3453 274.495 9.72C274.486 9.19733 274.607 8.73533 274.859 8.334C275.111 7.92333 275.466 7.606 275.923 7.382C276.39 7.14867 276.94 7.032 277.575 7.032C278.2 7.032 278.742 7.14867 279.199 7.382C279.666 7.61533 280.025 7.93733 280.277 8.348C280.538 8.75867 280.674 9.22533 280.683 9.748H279.451C279.451 9.47733 279.381 9.21133 279.241 8.95C279.101 8.67933 278.886 8.46 278.597 8.292C278.317 8.124 277.962 8.04 277.533 8.04C277.001 8.03067 276.562 8.166 276.217 8.446C275.881 8.726 275.713 9.11333 275.713 9.608C275.713 10.028 275.83 10.35 276.063 10.574C276.306 10.798 276.642 10.9847 277.071 11.134C277.5 11.274 277.995 11.4373 278.555 11.624C279.022 11.792 279.442 11.988 279.815 12.212C280.188 12.436 280.478 12.7253 280.683 13.08C280.898 13.4347 281.005 13.8873 281.005 14.438C281.005 14.9047 280.884 15.348 280.641 15.768C280.398 16.1787 280.03 16.5147 279.535 16.776C279.05 17.0373 278.438 17.168 277.701 17.168ZM285.347 17C284.712 17 284.213 16.846 283.849 16.538C283.485 16.23 283.303 15.6747 283.303 14.872V11.05H282.099V10.056H283.303L283.457 8.39H284.479V10.056H286.523V11.05H284.479V14.872C284.479 15.3107 284.567 15.6093 284.745 15.768C284.922 15.9173 285.235 15.992 285.683 15.992H286.411V17H285.347ZM288.423 17.07C288.189 17.07 287.993 16.9953 287.835 16.846C287.685 16.6873 287.611 16.496 287.611 16.272C287.611 16.048 287.685 15.8613 287.835 15.712C287.993 15.5533 288.189 15.474 288.423 15.474C288.647 15.474 288.833 15.5533 288.983 15.712C289.141 15.8613 289.221 16.048 289.221 16.272C289.221 16.496 289.141 16.6873 288.983 16.846C288.833 16.9953 288.647 17.07 288.423 17.07ZM294.456 17V6.92H295.632V17H294.456ZM300.724 17.168C300.07 17.168 299.482 17.0187 298.96 16.72C298.437 16.4213 298.022 16.0013 297.714 15.46C297.415 14.9093 297.266 14.2653 297.266 13.528C297.266 12.7907 297.42 12.1513 297.728 11.61C298.036 11.0593 298.451 10.6347 298.974 10.336C299.506 10.0373 300.098 9.888 300.752 9.888C301.405 9.888 301.993 10.0373 302.516 10.336C303.038 10.6347 303.449 11.0593 303.748 11.61C304.056 12.1513 304.21 12.7907 304.21 13.528C304.21 14.2653 304.056 14.9093 303.748 15.46C303.44 16.0013 303.02 16.4213 302.488 16.72C301.965 17.0187 301.377 17.168 300.724 17.168ZM300.724 16.16C301.125 16.16 301.498 16.062 301.844 15.866C302.189 15.67 302.469 15.376 302.684 14.984C302.898 14.592 303.006 14.1067 303.006 13.528C303.006 12.9493 302.898 12.464 302.684 12.072C302.478 11.68 302.203 11.386 301.858 11.19C301.512 10.994 301.144 10.896 300.752 10.896C300.35 10.896 299.977 10.994 299.632 11.19C299.286 11.386 299.006 11.68 298.792 12.072C298.577 12.464 298.47 12.9493 298.47 13.528C298.47 14.1067 298.577 14.592 298.792 14.984C299.006 15.376 299.282 15.67 299.618 15.866C299.963 16.062 300.332 16.16 300.724 16.16ZM308.379 17.168C307.558 17.168 306.904 16.9207 306.419 16.426C305.934 15.922 305.691 15.152 305.691 14.116V10.056H306.867V13.99C306.867 15.4367 307.46 16.16 308.645 16.16C309.252 16.16 309.751 15.9453 310.143 15.516C310.544 15.0773 310.745 14.4567 310.745 13.654V10.056H311.921V17H310.857L310.773 15.754C310.558 16.1927 310.236 16.538 309.807 16.79C309.387 17.042 308.911 17.168 308.379 17.168ZM314.571 8.516C314.337 8.516 314.141 8.44133 313.983 8.292C313.833 8.13333 313.759 7.93733 313.759 7.704C313.759 7.48 313.833 7.29333 313.983 7.144C314.141 6.99467 314.337 6.92 314.571 6.92C314.795 6.92 314.986 6.99467 315.145 7.144C315.303 7.29333 315.383 7.48 315.383 7.704C315.383 7.93733 315.303 8.13333 315.145 8.292C314.986 8.44133 314.795 8.516 314.571 8.516ZM313.983 17V10.056H315.159V17H313.983ZM319.866 17.168C319.036 17.168 318.345 16.958 317.794 16.538C317.244 16.118 316.922 15.5487 316.828 14.83H318.032C318.107 15.194 318.298 15.5113 318.606 15.782C318.924 16.0433 319.348 16.174 319.88 16.174C320.375 16.174 320.739 16.0713 320.972 15.866C321.206 15.6513 321.322 15.3993 321.322 15.11C321.322 14.69 321.168 14.41 320.86 14.27C320.562 14.13 320.137 14.004 319.586 13.892C319.213 13.8173 318.84 13.71 318.466 13.57C318.093 13.43 317.78 13.234 317.528 12.982C317.276 12.7207 317.15 12.38 317.15 11.96C317.15 11.3533 317.374 10.8587 317.822 10.476C318.28 10.084 318.896 9.888 319.67 9.888C320.408 9.888 321.01 10.0747 321.476 10.448C321.952 10.812 322.228 11.3347 322.302 12.016H321.14C321.094 11.6613 320.94 11.386 320.678 11.19C320.426 10.9847 320.086 10.882 319.656 10.882C319.236 10.882 318.91 10.9707 318.676 11.148C318.452 11.3253 318.34 11.5587 318.34 11.848C318.34 12.128 318.485 12.3473 318.774 12.506C319.073 12.6647 319.474 12.8 319.978 12.912C320.408 13.0053 320.814 13.122 321.196 13.262C321.588 13.3927 321.906 13.5933 322.148 13.864C322.4 14.1253 322.526 14.508 322.526 15.012C322.536 15.6373 322.298 16.1553 321.812 16.566C321.336 16.9673 320.688 17.168 319.866 17.168ZM328.947 17V8.516L327.365 8.866V8.054L329.339 7.2H330.137V17H328.947ZM336.028 17.168C335.16 17.168 334.409 16.958 333.774 16.538C333.149 16.1087 332.668 15.516 332.332 14.76C331.996 13.9947 331.828 13.108 331.828 12.1C331.828 11.092 331.996 10.21 332.332 9.454C332.668 8.68867 333.149 8.096 333.774 7.676C334.409 7.24667 335.16 7.032 336.028 7.032C336.896 7.032 337.643 7.24667 338.268 7.676C338.893 8.096 339.374 8.68867 339.71 9.454C340.046 10.21 340.214 11.092 340.214 12.1C340.214 13.108 340.046 13.9947 339.71 14.76C339.374 15.516 338.893 16.1087 338.268 16.538C337.643 16.958 336.896 17.168 336.028 17.168ZM336.028 16.132C336.597 16.132 337.106 15.9733 337.554 15.656C338.011 15.3293 338.366 14.8673 338.618 14.27C338.879 13.6633 339.01 12.94 339.01 12.1C339.01 11.26 338.879 10.5413 338.618 9.944C338.366 9.34667 338.011 8.88933 337.554 8.572C337.106 8.24533 336.597 8.082 336.028 8.082C335.449 8.082 334.936 8.24533 334.488 8.572C334.04 8.88933 333.685 9.34667 333.424 9.944C333.163 10.5413 333.032 11.26 333.032 12.1C333.032 12.94 333.163 13.6633 333.424 14.27C333.685 14.8673 334.04 15.3293 334.488 15.656C334.936 15.9733 335.449 16.132 336.028 16.132ZM345.735 17.168C344.867 17.168 344.116 16.958 343.481 16.538C342.856 16.1087 342.375 15.516 342.039 14.76C341.703 13.9947 341.535 13.108 341.535 12.1C341.535 11.092 341.703 10.21 342.039 9.454C342.375 8.68867 342.856 8.096 343.481 7.676C344.116 7.24667 344.867 7.032 345.735 7.032C346.603 7.032 347.35 7.24667 347.975 7.676C348.6 8.096 349.081 8.68867 349.417 9.454C349.753 10.21 349.921 11.092 349.921 12.1C349.921 13.108 349.753 13.9947 349.417 14.76C349.081 15.516 348.6 16.1087 347.975 16.538C347.35 16.958 346.603 17.168 345.735 17.168ZM345.735 16.132C346.304 16.132 346.813 15.9733 347.261 15.656C347.718 15.3293 348.073 14.8673 348.325 14.27C348.586 13.6633 348.717 12.94 348.717 12.1C348.717 11.26 348.586 10.5413 348.325 9.944C348.073 9.34667 347.718 8.88933 347.261 8.572C346.813 8.24533 346.304 8.082 345.735 8.082C345.156 8.082 344.643 8.24533 344.195 8.572C343.747 8.88933 343.392 9.34667 343.131 9.944C342.87 10.5413 342.739 11.26 342.739 12.1C342.739 12.94 342.87 13.6633 343.131 14.27C343.392 14.8673 343.747 15.3293 344.195 15.656C344.643 15.9733 345.156 16.132 345.735 16.132ZM355.442 17.168C354.574 17.168 353.823 16.958 353.188 16.538C352.563 16.1087 352.082 15.516 351.746 14.76C351.41 13.9947 351.242 13.108 351.242 12.1C351.242 11.092 351.41 10.21 351.746 9.454C352.082 8.68867 352.563 8.096 353.188 7.676C353.823 7.24667 354.574 7.032 355.442 7.032C356.31 7.032 357.057 7.24667 357.682 7.676C358.307 8.096 358.788 8.68867 359.124 9.454C359.46 10.21 359.628 11.092 359.628 12.1C359.628 13.108 359.46 13.9947 359.124 14.76C358.788 15.516 358.307 16.1087 357.682 16.538C357.057 16.958 356.31 17.168 355.442 17.168ZM355.442 16.132C356.011 16.132 356.52 15.9733 356.968 15.656C357.425 15.3293 357.78 14.8673 358.032 14.27C358.293 13.6633 358.424 12.94 358.424 12.1C358.424 11.26 358.293 10.5413 358.032 9.944C357.78 9.34667 357.425 8.88933 356.968 8.572C356.52 8.24533 356.011 8.082 355.442 8.082C354.863 8.082 354.35 8.24533 353.902 8.572C353.454 8.88933 353.099 9.34667 352.838 9.944C352.577 10.5413 352.446 11.26 352.446 12.1C352.446 12.94 352.577 13.6633 352.838 14.27C353.099 14.8673 353.454 15.3293 353.902 15.656C354.35 15.9733 354.863 16.132 355.442 16.132ZM362.293 17V8.516L360.711 8.866V8.054L362.685 7.2H363.483V17H362.293Z" fill="#FEFEFE"/>
<path fill-rule="evenodd" clip-rule="evenodd" d="M19.23 55.26L16.69 54.97C16.08 54.9 15.48 55.11 15.05 55.54L13.21 57.38C10.38 55.94 8.05998 53.63 6.61998 50.79L8.46998 48.94C8.89998 48.51 9.10998 47.91 9.03998 47.3L8.74998 44.78C8.62998 43.77 7.77998 43.01 6.75998 43.01H5.02998C3.89998 43.01 2.95998 43.95 3.02998 45.08C3.55998 53.62 10.39 60.44 18.92 60.97C20.05 61.04 20.99 60.1 20.99 58.97V57.24C21 56.23 20.24 55.38 19.23 55.26Z" fill="#FFF9BD"/>
<path d="M43.01 59.464C42.4407 58.5213 41.988 57.5367 41.652 56.51C41.3253 55.474 41.162 54.34 41.162 53.108C41.162 51.876 41.3253 50.742 41.652 49.706C41.988 48.67 42.4407 47.6853 43.01 46.752L43.64 47.06C43.0987 47.9467 42.6927 48.908 42.422 49.944C42.1513 50.98 42.016 52.0347 42.016 53.108C42.016 54.1813 42.1513 55.236 42.422 56.272C42.6927 57.2987 43.0987 58.26 43.64 59.156L43.01 59.464ZM44.8423 57V56.146H46.9003V49.356H45.2763V48.698C45.6776 48.6327 46.0276 48.5487 46.3263 48.446C46.6249 48.334 46.8956 48.208 47.1383 48.068H47.9223V56.146H49.7843V57H44.8423ZM51.0327 57V56.398C51.9473 55.474 52.722 54.6667 53.3567 53.976C53.9913 53.276 54.472 52.6507 54.7987 52.1C55.1253 51.5493 55.2887 51.0267 55.2887 50.532C55.2887 50.0093 55.144 49.58 54.8547 49.244C54.5747 48.908 54.1313 48.74 53.5247 48.74C53.1513 48.74 52.7967 48.8427 52.4607 49.048C52.134 49.2533 51.84 49.5147 51.5787 49.832L50.9767 49.244C51.35 48.8427 51.7467 48.5207 52.1667 48.278C52.5867 48.026 53.0813 47.9 53.6507 47.9C54.192 47.9 54.6587 48.0073 55.0507 48.222C55.452 48.4367 55.76 48.74 55.9747 49.132C56.1893 49.5147 56.2967 49.9673 56.2967 50.49C56.2967 51.0593 56.1333 51.6333 55.8067 52.212C55.4893 52.7907 55.046 53.4067 54.4767 54.06C53.9167 54.704 53.268 55.4133 52.5307 56.188C52.7733 56.1693 53.0253 56.1553 53.2867 56.146C53.548 56.1273 53.7953 56.118 54.0287 56.118H56.7307V57H51.0327ZM60.6533 57.168C60.1773 57.168 59.7573 57.1073 59.3933 56.986C59.0293 56.8647 58.7119 56.7107 58.4413 56.524C58.1706 56.328 57.9373 56.1227 57.7413 55.908L58.2593 55.236C58.5299 55.516 58.8473 55.768 59.2113 55.992C59.5846 56.2067 60.0466 56.314 60.5973 56.314C61.1573 56.314 61.6146 56.16 61.9693 55.852C62.3333 55.5347 62.5153 55.1147 62.5153 54.592C62.5153 54.228 62.4173 53.906 62.2213 53.626C62.0346 53.346 61.7266 53.1313 61.2973 52.982C60.8773 52.8233 60.3079 52.744 59.5893 52.744V51.946C60.2333 51.946 60.7419 51.8713 61.1153 51.722C61.4979 51.5633 61.7733 51.3533 61.9413 51.092C62.1093 50.8307 62.1933 50.5367 62.1933 50.21C62.1933 49.762 62.0486 49.4073 61.7593 49.146C61.4699 48.8753 61.0779 48.74 60.5833 48.74C60.2006 48.74 59.8459 48.8287 59.5193 49.006C59.1926 49.174 58.8986 49.3933 58.6373 49.664L58.0773 49.006C58.4226 48.6887 58.8006 48.4273 59.2113 48.222C59.6219 48.0073 60.0886 47.9 60.6113 47.9C61.1153 47.9 61.5633 47.9887 61.9553 48.166C62.3473 48.3433 62.6553 48.6 62.8793 48.936C63.1126 49.2627 63.2293 49.664 63.2293 50.14C63.2293 50.6907 63.0753 51.1433 62.7673 51.498C62.4686 51.8433 62.0719 52.1047 61.5773 52.282V52.338C61.9413 52.422 62.2726 52.5667 62.5713 52.772C62.8699 52.968 63.1079 53.2247 63.2853 53.542C63.4626 53.85 63.5513 54.2093 63.5513 54.62C63.5513 55.152 63.4206 55.6093 63.1593 55.992C62.8979 56.3653 62.5479 56.6547 62.1093 56.86C61.6706 57.0653 61.1853 57.168 60.6533 57.168ZM65.4019 59.464L64.7719 59.156C65.3132 58.26 65.7192 57.2987 65.9899 56.272C66.2606 55.236 66.3959 54.1813 66.3959 53.108C66.3959 52.0347 66.2606 50.98 65.9899 49.944C65.7192 48.908 65.3132 47.9467 64.7719 47.06L65.4019 46.752C65.9806 47.6853 66.4332 48.67 66.7599 49.706C67.0866 50.742 67.2499 51.876 67.2499 53.108C67.2499 54.34 67.0866 55.474 66.7599 56.51C66.4332 57.5367 65.9806 58.5213 65.4019 59.464ZM75.4829 57V50.896C75.4829 50.6627 75.4922 50.3827 75.5109 50.056C75.5296 49.7293 75.5436 49.4493 75.5529 49.216H75.4969C75.3849 49.4213 75.2682 49.622 75.1469 49.818C75.0256 50.014 74.8996 50.224 74.7689 50.448L72.5429 53.668H77.6949V54.48H71.4509V53.822L75.3569 48.068H76.4489V57H75.4829ZM81.3515 57.168C80.8755 57.168 80.4555 57.112 80.0915 57C79.7368 56.8787 79.4242 56.7247 79.1535 56.538C78.8922 56.3513 78.6588 56.1553 78.4535 55.95L78.9715 55.278C79.2422 55.5393 79.5548 55.7773 79.9095 55.992C80.2735 56.2067 80.7262 56.314 81.2675 56.314C81.6408 56.314 81.9815 56.2253 82.2895 56.048C82.5975 55.8707 82.8402 55.6233 83.0175 55.306C83.1948 54.9887 83.2835 54.6153 83.2835 54.186C83.2835 53.542 83.1062 53.0427 82.7515 52.688C82.3968 52.324 81.9208 52.142 81.3235 52.142C81.0062 52.142 80.7308 52.1887 80.4975 52.282C80.2735 52.3753 80.0262 52.5107 79.7555 52.688L79.1955 52.338L79.4895 48.068H83.8715V48.95H80.3855L80.1335 51.736C80.3575 51.6147 80.5815 51.5213 80.8055 51.456C81.0295 51.3813 81.2815 51.344 81.5615 51.344C82.0748 51.344 82.5368 51.4467 82.9475 51.652C83.3675 51.848 83.6988 52.1513 83.9415 52.562C84.1935 52.9727 84.3195 53.5 84.3195 54.144C84.3195 54.788 84.1795 55.3387 83.8995 55.796C83.6195 56.244 83.2508 56.5847 82.7935 56.818C82.3455 57.0513 81.8648 57.168 81.3515 57.168ZM88.7181 57.168C88.2795 57.168 87.8735 57.0793 87.5001 56.902C87.1268 56.7247 86.8048 56.4587 86.5341 56.104C86.2728 55.74 86.0628 55.292 85.9041 54.76C85.7548 54.2187 85.6801 53.598 85.6801 52.898C85.6801 51.9833 85.7735 51.2087 85.9601 50.574C86.1468 49.9393 86.3941 49.426 86.7021 49.034C87.0195 48.642 87.3788 48.3573 87.7801 48.18C88.1908 47.9933 88.6155 47.9 89.0541 47.9C89.5208 47.9 89.9221 47.9887 90.2581 48.166C90.6035 48.334 90.8975 48.5533 91.1401 48.824L90.5661 49.468C90.3795 49.244 90.1555 49.0713 89.8941 48.95C89.6421 48.8193 89.3715 48.754 89.0821 48.754C88.6435 48.754 88.2375 48.8847 87.8641 49.146C87.5001 49.4073 87.2061 49.8413 86.9821 50.448C86.7581 51.0453 86.6461 51.862 86.6461 52.898C86.6461 53.626 86.7255 54.2513 86.8841 54.774C87.0428 55.2873 87.2761 55.6793 87.5841 55.95C87.8921 56.2207 88.2748 56.356 88.7321 56.356C89.0308 56.356 89.3015 56.272 89.5441 56.104C89.7961 55.9267 89.9921 55.684 90.1321 55.376C90.2721 55.068 90.3421 54.718 90.3421 54.326C90.3421 53.9247 90.2768 53.5747 90.1461 53.276C90.0248 52.9773 89.8381 52.7487 89.5861 52.59C89.3341 52.422 89.0121 52.338 88.6201 52.338C88.3215 52.338 87.9948 52.436 87.6401 52.632C87.2855 52.828 86.9448 53.164 86.6181 53.64L86.5901 52.8C86.8795 52.4173 87.2201 52.114 87.6121 51.89C88.0041 51.666 88.3961 51.554 88.7881 51.554C89.3015 51.554 89.7448 51.6613 90.1181 51.876C90.5008 52.0813 90.7948 52.3893 91.0001 52.8C91.2055 53.2013 91.3081 53.71 91.3081 54.326C91.3081 54.886 91.1915 55.3807 90.9581 55.81C90.7248 56.23 90.4121 56.5613 90.0201 56.804C89.6281 57.0467 89.1941 57.168 88.7181 57.168ZM92.4588 53.892V53.094H95.6368V53.892H92.4588ZM98.7114 57C98.7581 55.8613 98.8747 54.8393 99.0614 53.934C99.2481 53.0287 99.5234 52.1793 99.8874 51.386C100.251 50.5833 100.727 49.7713 101.315 48.95H96.8074V48.068H102.491V48.684C101.959 49.3653 101.525 50.0233 101.189 50.658C100.853 51.2833 100.587 51.918 100.391 52.562C100.205 53.206 100.065 53.8873 99.9714 54.606C99.8781 55.3247 99.8081 56.1227 99.7614 57H98.7114ZM106.554 57.168C106.003 57.168 105.509 57.0653 105.07 56.86C104.631 56.6453 104.286 56.3513 104.034 55.978C103.782 55.6047 103.656 55.1847 103.656 54.718C103.656 54.326 103.74 53.976 103.908 53.668C104.076 53.36 104.291 53.0893 104.552 52.856C104.813 52.6227 105.084 52.4313 105.364 52.282V52.226C105.037 51.9927 104.743 51.708 104.482 51.372C104.23 51.036 104.104 50.6347 104.104 50.168C104.104 49.7107 104.211 49.314 104.426 48.978C104.65 48.6327 104.949 48.3667 105.322 48.18C105.695 47.9933 106.115 47.9 106.582 47.9C107.366 47.9 107.977 48.124 108.416 48.572C108.864 49.0107 109.088 49.5753 109.088 50.266C109.088 50.5833 109.018 50.882 108.878 51.162C108.747 51.4327 108.584 51.68 108.388 51.904C108.201 52.128 108.019 52.31 107.842 52.45V52.506C108.103 52.6647 108.351 52.8467 108.584 53.052C108.827 53.248 109.023 53.4907 109.172 53.78C109.321 54.06 109.396 54.396 109.396 54.788C109.396 55.236 109.279 55.6373 109.046 55.992C108.813 56.3467 108.481 56.6313 108.052 56.846C107.623 57.0607 107.123 57.168 106.554 57.168ZM106.582 56.398C106.946 56.398 107.263 56.328 107.534 56.188C107.814 56.048 108.029 55.8567 108.178 55.614C108.337 55.362 108.416 55.082 108.416 54.774C108.416 54.3633 108.299 54.032 108.066 53.78C107.833 53.528 107.525 53.3133 107.142 53.136C106.769 52.9587 106.358 52.7813 105.91 52.604C105.537 52.8467 105.219 53.136 104.958 53.472C104.706 53.808 104.58 54.1953 104.58 54.634C104.58 54.97 104.664 55.2733 104.832 55.544C105.009 55.8053 105.247 56.0153 105.546 56.174C105.854 56.3233 106.199 56.398 106.582 56.398ZM107.184 52.184C107.511 51.8947 107.758 51.596 107.926 51.288C108.103 50.98 108.192 50.6533 108.192 50.308C108.192 50.0093 108.127 49.7387 107.996 49.496C107.875 49.244 107.693 49.0433 107.45 48.894C107.207 48.7447 106.913 48.67 106.568 48.67C106.129 48.67 105.765 48.81 105.476 49.09C105.196 49.3607 105.056 49.72 105.056 50.168C105.056 50.5413 105.154 50.8493 105.35 51.092C105.555 51.3347 105.821 51.54 106.148 51.708C106.475 51.876 106.82 52.0347 107.184 52.184ZM112.801 57.168C112.334 57.168 111.928 57.0793 111.583 56.902C111.237 56.7247 110.948 56.5053 110.715 56.244L111.289 55.6C111.475 55.824 111.699 56.0013 111.961 56.132C112.222 56.2533 112.488 56.314 112.759 56.314C113.207 56.314 113.613 56.1833 113.977 55.922C114.35 55.6607 114.644 55.2267 114.859 54.62C115.083 54.0133 115.195 53.1967 115.195 52.17C115.195 51.442 115.115 50.8213 114.957 50.308C114.807 49.7853 114.579 49.3887 114.271 49.118C113.963 48.8473 113.58 48.712 113.123 48.712C112.824 48.712 112.553 48.8007 112.311 48.978C112.068 49.146 111.872 49.384 111.723 49.692C111.583 49.9907 111.513 50.3407 111.513 50.742C111.513 51.1433 111.573 51.4933 111.695 51.792C111.825 52.0907 112.017 52.324 112.269 52.492C112.521 52.6507 112.843 52.73 113.235 52.73C113.533 52.73 113.86 52.632 114.215 52.436C114.569 52.2307 114.91 51.89 115.237 51.414L115.265 52.268C114.985 52.6413 114.644 52.9447 114.243 53.178C113.851 53.402 113.459 53.514 113.067 53.514C112.553 53.514 112.105 53.4113 111.723 53.206C111.34 52.9913 111.046 52.6787 110.841 52.268C110.635 51.8573 110.533 51.3487 110.533 50.742C110.533 50.182 110.649 49.6873 110.883 49.258C111.125 48.8287 111.443 48.4973 111.835 48.264C112.227 48.0213 112.656 47.9 113.123 47.9C113.571 47.9 113.977 47.9887 114.341 48.166C114.714 48.3433 115.036 48.614 115.307 48.978C115.577 49.3327 115.787 49.7807 115.937 50.322C116.095 50.854 116.175 51.47 116.175 52.17C116.175 53.0753 116.081 53.85 115.895 54.494C115.708 55.1287 115.456 55.642 115.139 56.034C114.821 56.426 114.462 56.7153 114.061 56.902C113.659 57.0793 113.239 57.168 112.801 57.168ZM120.307 57.168C119.43 57.168 118.739 56.7667 118.235 55.964C117.741 55.152 117.493 53.9993 117.493 52.506C117.493 51.0033 117.741 49.86 118.235 49.076C118.739 48.292 119.43 47.9 120.307 47.9C121.194 47.9 121.885 48.2967 122.379 49.09C122.874 49.874 123.121 51.0127 123.121 52.506C123.121 53.9993 122.874 55.152 122.379 55.964C121.885 56.7667 121.194 57.168 120.307 57.168ZM120.307 56.342C120.671 56.342 120.989 56.2067 121.259 55.936C121.539 55.6653 121.754 55.2453 121.903 54.676C122.053 54.1067 122.127 53.3833 122.127 52.506C122.127 51.6193 122.053 50.9007 121.903 50.35C121.754 49.79 121.539 49.3793 121.259 49.118C120.989 48.8567 120.671 48.726 120.307 48.726C119.943 48.726 119.626 48.8567 119.355 49.118C119.085 49.3793 118.87 49.79 118.711 50.35C118.562 50.9007 118.487 51.6193 118.487 52.506C118.487 53.3833 118.562 54.1067 118.711 54.676C118.87 55.2453 119.085 55.6653 119.355 55.936C119.626 56.2067 119.943 56.342 120.307 56.342Z" fill="#FEFEFE"/>
<path fill-rule="evenodd" clip-rule="evenodd" d="M251 43H261C261.55 43 262 43.45 262 44V46C262 46.55 261.55 47 261 47H251C250.45 47 250 46.55 250 46V44C250 43.45 250.45 43 251 43ZM249 48H263C264.66 48 266 49.34 266 51V55C266 56.1 265.1 57 264 57H262V59C262 60.1 261.1 61 260 61H252C250.9 61 250 60.1 250 59V57H248C246.9 57 246 56.1 246 55V51C246 49.34 247.34 48 249 48ZM253 59H259C259.55 59 260 58.55 260 58V54H252V58C252 58.55 252.45 59 253 59ZM263 52C262.45 52 262 51.55 262 51C262 50.45 262.45 50 263 50C263.55 50 264 50.45 264 51C264 51.55 263.55 52 263 52Z" fill="#FFF9BD"/>
<path d="M287.01 59.464C286.441 58.5213 285.988 57.5367 285.652 56.51C285.325 55.474 285.162 54.34 285.162 53.108C285.162 51.876 285.325 50.742 285.652 49.706C285.988 48.67 286.441 47.6853 287.01 46.752L287.64 47.06C287.099 47.9467 286.693 48.908 286.422 49.944C286.151 50.98 286.016 52.0347 286.016 53.108C286.016 54.1813 286.151 55.236 286.422 56.272C286.693 57.2987 287.099 58.26 287.64 59.156L287.01 59.464ZM288.842 57V56.146H290.9V49.356H289.276V48.698C289.678 48.6327 290.028 48.5487 290.326 48.446C290.625 48.334 290.896 48.208 291.138 48.068H291.922V56.146H293.784V57H288.842ZM295.033 57V56.398C295.947 55.474 296.722 54.6667 297.357 53.976C297.991 53.276 298.472 52.6507 298.799 52.1C299.125 51.5493 299.289 51.0267 299.289 50.532C299.289 50.0093 299.144 49.58 298.855 49.244C298.575 48.908 298.131 48.74 297.525 48.74C297.151 48.74 296.797 48.8427 296.461 49.048C296.134 49.2533 295.84 49.5147 295.579 49.832L294.977 49.244C295.35 48.8427 295.747 48.5207 296.167 48.278C296.587 48.026 297.081 47.9 297.651 47.9C298.192 47.9 298.659 48.0073 299.051 48.222C299.452 48.4367 299.76 48.74 299.975 49.132C300.189 49.5147 300.297 49.9673 300.297 50.49C300.297 51.0593 300.133 51.6333 299.807 52.212C299.489 52.7907 299.046 53.4067 298.477 54.06C297.917 54.704 297.268 55.4133 296.531 56.188C296.773 56.1693 297.025 56.1553 297.287 56.146C297.548 56.1273 297.795 56.118 298.029 56.118H300.731V57H295.033ZM304.653 57.168C304.177 57.168 303.757 57.1073 303.393 56.986C303.029 56.8647 302.712 56.7107 302.441 56.524C302.171 56.328 301.937 56.1227 301.741 55.908L302.259 55.236C302.53 55.516 302.847 55.768 303.211 55.992C303.585 56.2067 304.047 56.314 304.597 56.314C305.157 56.314 305.615 56.16 305.969 55.852C306.333 55.5347 306.515 55.1147 306.515 54.592C306.515 54.228 306.417 53.906 306.221 53.626C306.035 53.346 305.727 53.1313 305.297 52.982C304.877 52.8233 304.308 52.744 303.589 52.744V51.946C304.233 51.946 304.742 51.8713 305.115 51.722C305.498 51.5633 305.773 51.3533 305.941 51.092C306.109 50.8307 306.193 50.5367 306.193 50.21C306.193 49.762 306.049 49.4073 305.759 49.146C305.47 48.8753 305.078 48.74 304.583 48.74C304.201 48.74 303.846 48.8287 303.519 49.006C303.193 49.174 302.899 49.3933 302.637 49.664L302.077 49.006C302.423 48.6887 302.801 48.4273 303.211 48.222C303.622 48.0073 304.089 47.9 304.611 47.9C305.115 47.9 305.563 47.9887 305.955 48.166C306.347 48.3433 306.655 48.6 306.879 48.936C307.113 49.2627 307.229 49.664 307.229 50.14C307.229 50.6907 307.075 51.1433 306.767 51.498C306.469 51.8433 306.072 52.1047 305.577 52.282V52.338C305.941 52.422 306.273 52.5667 306.571 52.772C306.87 52.968 307.108 53.2247 307.285 53.542C307.463 53.85 307.551 54.2093 307.551 54.62C307.551 55.152 307.421 55.6093 307.159 55.992C306.898 56.3653 306.548 56.6547 306.109 56.86C305.671 57.0653 305.185 57.168 304.653 57.168ZM309.402 59.464L308.772 59.156C309.313 58.26 309.719 57.2987 309.99 56.272C310.261 55.236 310.396 54.1813 310.396 53.108C310.396 52.0347 310.261 50.98 309.99 49.944C309.719 48.908 309.313 47.9467 308.772 47.06L309.402 46.752C309.981 47.6853 310.433 48.67 310.76 49.706C311.087 50.742 311.25 51.876 311.25 53.108C311.25 54.34 311.087 55.474 310.76 56.51C310.433 57.5367 309.981 58.5213 309.402 59.464ZM319.483 57V50.896C319.483 50.6627 319.492 50.3827 319.511 50.056C319.53 49.7293 319.544 49.4493 319.553 49.216H319.497C319.385 49.4213 319.268 49.622 319.147 49.818C319.026 50.014 318.9 50.224 318.769 50.448L316.543 53.668H321.695V54.48H315.451V53.822L319.357 48.068H320.449V57H319.483ZM325.352 57.168C324.876 57.168 324.456 57.112 324.092 57C323.737 56.8787 323.424 56.7247 323.154 56.538C322.892 56.3513 322.659 56.1553 322.454 55.95L322.972 55.278C323.242 55.5393 323.555 55.7773 323.91 55.992C324.274 56.2067 324.726 56.314 325.268 56.314C325.641 56.314 325.982 56.2253 326.29 56.048C326.598 55.8707 326.84 55.6233 327.018 55.306C327.195 54.9887 327.284 54.6153 327.284 54.186C327.284 53.542 327.106 53.0427 326.752 52.688C326.397 52.324 325.921 52.142 325.324 52.142C325.006 52.142 324.731 52.1887 324.498 52.282C324.274 52.3753 324.026 52.5107 323.756 52.688L323.196 52.338L323.49 48.068H327.872V48.95H324.386L324.134 51.736C324.358 51.6147 324.582 51.5213 324.806 51.456C325.03 51.3813 325.282 51.344 325.562 51.344C326.075 51.344 326.537 51.4467 326.948 51.652C327.368 51.848 327.699 52.1513 327.942 52.562C328.194 52.9727 328.32 53.5 328.32 54.144C328.32 54.788 328.18 55.3387 327.9 55.796C327.62 56.244 327.251 56.5847 326.794 56.818C326.346 57.0513 325.865 57.168 325.352 57.168ZM332.718 57.168C332.279 57.168 331.873 57.0793 331.5 56.902C331.127 56.7247 330.805 56.4587 330.534 56.104C330.273 55.74 330.063 55.292 329.904 54.76C329.755 54.2187 329.68 53.598 329.68 52.898C329.68 51.9833 329.773 51.2087 329.96 50.574C330.147 49.9393 330.394 49.426 330.702 49.034C331.019 48.642 331.379 48.3573 331.78 48.18C332.191 47.9933 332.615 47.9 333.054 47.9C333.521 47.9 333.922 47.9887 334.258 48.166C334.603 48.334 334.897 48.5533 335.14 48.824L334.566 49.468C334.379 49.244 334.155 49.0713 333.894 48.95C333.642 48.8193 333.371 48.754 333.082 48.754C332.643 48.754 332.237 48.8847 331.864 49.146C331.5 49.4073 331.206 49.8413 330.982 50.448C330.758 51.0453 330.646 51.862 330.646 52.898C330.646 53.626 330.725 54.2513 330.884 54.774C331.043 55.2873 331.276 55.6793 331.584 55.95C331.892 56.2207 332.275 56.356 332.732 56.356C333.031 56.356 333.301 56.272 333.544 56.104C333.796 55.9267 333.992 55.684 334.132 55.376C334.272 55.068 334.342 54.718 334.342 54.326C334.342 53.9247 334.277 53.5747 334.146 53.276C334.025 52.9773 333.838 52.7487 333.586 52.59C333.334 52.422 333.012 52.338 332.62 52.338C332.321 52.338 331.995 52.436 331.64 52.632C331.285 52.828 330.945 53.164 330.618 53.64L330.59 52.8C330.879 52.4173 331.22 52.114 331.612 51.89C332.004 51.666 332.396 51.554 332.788 51.554C333.301 51.554 333.745 51.6613 334.118 51.876C334.501 52.0813 334.795 52.3893 335 52.8C335.205 53.2013 335.308 53.71 335.308 54.326C335.308 54.886 335.191 55.3807 334.958 55.81C334.725 56.23 334.412 56.5613 334.02 56.804C333.628 57.0467 333.194 57.168 332.718 57.168ZM336.459 53.892V53.094H339.637V53.892H336.459ZM342.711 57C342.758 55.8613 342.875 54.8393 343.061 53.934C343.248 53.0287 343.523 52.1793 343.887 51.386C344.251 50.5833 344.727 49.7713 345.315 48.95H340.807V48.068H346.491V48.684C345.959 49.3653 345.525 50.0233 345.189 50.658C344.853 51.2833 344.587 51.918 344.391 52.562C344.205 53.206 344.065 53.8873 343.971 54.606C343.878 55.3247 343.808 56.1227 343.761 57H342.711ZM350.554 57.168C350.003 57.168 349.509 57.0653 349.07 56.86C348.631 56.6453 348.286 56.3513 348.034 55.978C347.782 55.6047 347.656 55.1847 347.656 54.718C347.656 54.326 347.74 53.976 347.908 53.668C348.076 53.36 348.291 53.0893 348.552 52.856C348.813 52.6227 349.084 52.4313 349.364 52.282V52.226C349.037 51.9927 348.743 51.708 348.482 51.372C348.23 51.036 348.104 50.6347 348.104 50.168C348.104 49.7107 348.211 49.314 348.426 48.978C348.65 48.6327 348.949 48.3667 349.322 48.18C349.695 47.9933 350.115 47.9 350.582 47.9C351.366 47.9 351.977 48.124 352.416 48.572C352.864 49.0107 353.088 49.5753 353.088 50.266C353.088 50.5833 353.018 50.882 352.878 51.162C352.747 51.4327 352.584 51.68 352.388 51.904C352.201 52.128 352.019 52.31 351.842 52.45V52.506C352.103 52.6647 352.351 52.8467 352.584 53.052C352.827 53.248 353.023 53.4907 353.172 53.78C353.321 54.06 353.396 54.396 353.396 54.788C353.396 55.236 353.279 55.6373 353.046 55.992C352.813 56.3467 352.481 56.6313 352.052 56.846C351.623 57.0607 351.123 57.168 350.554 57.168ZM350.582 56.398C350.946 56.398 351.263 56.328 351.534 56.188C351.814 56.048 352.029 55.8567 352.178 55.614C352.337 55.362 352.416 55.082 352.416 54.774C352.416 54.3633 352.299 54.032 352.066 53.78C351.833 53.528 351.525 53.3133 351.142 53.136C350.769 52.9587 350.358 52.7813 349.91 52.604C349.537 52.8467 349.219 53.136 348.958 53.472C348.706 53.808 348.58 54.1953 348.58 54.634C348.58 54.97 348.664 55.2733 348.832 55.544C349.009 55.8053 349.247 56.0153 349.546 56.174C349.854 56.3233 350.199 56.398 350.582 56.398ZM351.184 52.184C351.511 51.8947 351.758 51.596 351.926 51.288C352.103 50.98 352.192 50.6533 352.192 50.308C352.192 50.0093 352.127 49.7387 351.996 49.496C351.875 49.244 351.693 49.0433 351.45 48.894C351.207 48.7447 350.913 48.67 350.568 48.67C350.129 48.67 349.765 48.81 349.476 49.09C349.196 49.3607 349.056 49.72 349.056 50.168C349.056 50.5413 349.154 50.8493 349.35 51.092C349.555 51.3347 349.821 51.54 350.148 51.708C350.475 51.876 350.82 52.0347 351.184 52.184ZM356.801 57.168C356.334 57.168 355.928 57.0793 355.583 56.902C355.237 56.7247 354.948 56.5053 354.715 56.244L355.289 55.6C355.475 55.824 355.699 56.0013 355.961 56.132C356.222 56.2533 356.488 56.314 356.759 56.314C357.207 56.314 357.613 56.1833 357.977 55.922C358.35 55.6607 358.644 55.2267 358.859 54.62C359.083 54.0133 359.195 53.1967 359.195 52.17C359.195 51.442 359.115 50.8213 358.957 50.308C358.807 49.7853 358.579 49.3887 358.271 49.118C357.963 48.8473 357.58 48.712 357.123 48.712C356.824 48.712 356.553 48.8007 356.311 48.978C356.068 49.146 355.872 49.384 355.723 49.692C355.583 49.9907 355.513 50.3407 355.513 50.742C355.513 51.1433 355.573 51.4933 355.695 51.792C355.825 52.0907 356.017 52.324 356.269 52.492C356.521 52.6507 356.843 52.73 357.235 52.73C357.533 52.73 357.86 52.632 358.215 52.436C358.569 52.2307 358.91 51.89 359.237 51.414L359.265 52.268C358.985 52.6413 358.644 52.9447 358.243 53.178C357.851 53.402 357.459 53.514 357.067 53.514C356.553 53.514 356.105 53.4113 355.723 53.206C355.34 52.9913 355.046 52.6787 354.841 52.268C354.635 51.8573 354.533 51.3487 354.533 50.742C354.533 50.182 354.649 49.6873 354.883 49.258C355.125 48.8287 355.443 48.4973 355.835 48.264C356.227 48.0213 356.656 47.9 357.123 47.9C357.571 47.9 357.977 47.9887 358.341 48.166C358.714 48.3433 359.036 48.614 359.307 48.978C359.577 49.3327 359.787 49.7807 359.937 50.322C360.095 50.854 360.175 51.47 360.175 52.17C360.175 53.0753 360.081 53.85 359.895 54.494C359.708 55.1287 359.456 55.642 359.139 56.034C358.821 56.426 358.462 56.7153 358.061 56.902C357.659 57.0793 357.239 57.168 356.801 57.168ZM364.307 57.168C363.43 57.168 362.739 56.7667 362.235 55.964C361.741 55.152 361.493 53.9993 361.493 52.506C361.493 51.0033 361.741 49.86 362.235 49.076C362.739 48.292 363.43 47.9 364.307 47.9C365.194 47.9 365.885 48.2967 366.379 49.09C366.874 49.874 367.121 51.0127 367.121 52.506C367.121 53.9993 366.874 55.152 366.379 55.964C365.885 56.7667 365.194 57.168 364.307 57.168ZM364.307 56.342C364.671 56.342 364.989 56.2067 365.259 55.936C365.539 55.6653 365.754 55.2453 365.903 54.676C366.053 54.1067 366.127 53.3833 366.127 52.506C366.127 51.6193 366.053 50.9007 365.903 50.35C365.754 49.79 365.539 49.3793 365.259 49.118C364.989 48.8567 364.671 48.726 364.307 48.726C363.943 48.726 363.626 48.8567 363.355 49.118C363.085 49.3793 362.87 49.79 362.711 50.35C362.562 50.9007 362.487 51.6193 362.487 52.506C362.487 53.3833 362.562 54.1067 362.711 54.676C362.87 55.2453 363.085 55.6653 363.355 55.936C363.626 56.2067 363.943 56.342 364.307 56.342Z" fill="#FEFEFE"/>
<path opacity="0.5" d="M4.228 121.168C3.50933 121.168 2.87933 121.042 2.338 120.79C1.79667 120.538 1.372 120.179 1.064 119.712C0.765333 119.245 0.611333 118.69 0.602 118.046H2.17C2.17933 118.569 2.36133 119.012 2.716 119.376C3.07067 119.74 3.57 119.922 4.214 119.922C4.78333 119.922 5.22667 119.787 5.544 119.516C5.87067 119.236 6.034 118.881 6.034 118.452C6.034 118.107 5.95467 117.827 5.796 117.612C5.64667 117.397 5.43667 117.22 5.166 117.08C4.90467 116.94 4.60133 116.814 4.256 116.702C3.91067 116.59 3.54667 116.469 3.164 116.338C2.408 116.086 1.83867 115.759 1.456 115.358C1.08267 114.957 0.896 114.429 0.896 113.776C0.886667 113.225 1.01267 112.745 1.274 112.334C1.54467 111.923 1.918 111.606 2.394 111.382C2.87933 111.149 3.444 111.032 4.088 111.032C4.72267 111.032 5.278 111.149 5.754 111.382C6.23933 111.615 6.61733 111.942 6.888 112.362C7.15867 112.773 7.29867 113.253 7.308 113.804H5.74C5.74 113.552 5.67467 113.314 5.544 113.09C5.41333 112.857 5.222 112.665 4.97 112.516C4.718 112.367 4.41 112.292 4.046 112.292C3.57933 112.283 3.192 112.399 2.884 112.642C2.58533 112.885 2.436 113.221 2.436 113.65C2.436 114.033 2.548 114.327 2.772 114.532C2.996 114.737 3.304 114.91 3.696 115.05C4.088 115.181 4.536 115.335 5.04 115.512C5.52533 115.671 5.95933 115.862 6.342 116.086C6.72467 116.31 7.028 116.604 7.252 116.968C7.48533 117.332 7.602 117.794 7.602 118.354C7.602 118.849 7.476 119.311 7.224 119.74C6.972 120.16 6.594 120.505 6.09 120.776C5.586 121.037 4.96533 121.168 4.228 121.168ZM12.4165 121.168C11.7538 121.168 11.1565 121.019 10.6245 120.72C10.1018 120.412 9.68647 119.987 9.37847 119.446C9.07047 118.895 8.91647 118.256 8.91647 117.528C8.91647 116.8 9.07047 116.165 9.37847 115.624C9.6958 115.073 10.1205 114.649 10.6525 114.35C11.1845 114.042 11.7771 113.888 12.4305 113.888C13.0931 113.888 13.6858 114.042 14.2085 114.35C14.7405 114.649 15.1605 115.073 15.4685 115.624C15.7858 116.165 15.9445 116.8 15.9445 117.528C15.9445 118.256 15.7858 118.895 15.4685 119.446C15.1605 119.987 14.7405 120.412 14.2085 120.72C13.6765 121.019 13.0791 121.168 12.4165 121.168ZM12.4165 119.894C12.7711 119.894 13.0978 119.805 13.3965 119.628C13.7045 119.451 13.9518 119.189 14.1385 118.844C14.3251 118.489 14.4185 118.051 14.4185 117.528C14.4185 117.005 14.3251 116.571 14.1385 116.226C13.9611 115.871 13.7185 115.605 13.4105 115.428C13.1118 115.251 12.7851 115.162 12.4305 115.162C12.0758 115.162 11.7445 115.251 11.4365 115.428C11.1378 115.605 10.8951 115.871 10.7085 116.226C10.5218 116.571 10.4285 117.005 10.4285 117.528C10.4285 118.051 10.5218 118.489 10.7085 118.844C10.8951 119.189 11.1378 119.451 11.4365 119.628C11.7351 119.805 12.0618 119.894 12.4165 119.894ZM20.8393 121.168C20.158 121.168 19.5467 121.014 19.0053 120.706C18.4733 120.398 18.0533 119.973 17.7453 119.432C17.4467 118.881 17.2973 118.247 17.2973 117.528C17.2973 116.809 17.4467 116.179 17.7453 115.638C18.0533 115.087 18.4733 114.658 19.0053 114.35C19.5467 114.042 20.158 113.888 20.8393 113.888C21.698 113.888 22.4167 114.112 22.9953 114.56C23.5833 115.008 23.9613 115.615 24.1293 116.38H22.5753C22.482 115.997 22.2767 115.699 21.9593 115.484C21.642 115.269 21.2687 115.162 20.8393 115.162C20.4753 115.162 20.1393 115.255 19.8313 115.442C19.5233 115.619 19.276 115.885 19.0893 116.24C18.9027 116.585 18.8093 117.015 18.8093 117.528C18.8093 118.041 18.9027 118.475 19.0893 118.83C19.276 119.175 19.5233 119.441 19.8313 119.628C20.1393 119.815 20.4753 119.908 20.8393 119.908C21.2687 119.908 21.642 119.801 21.9593 119.586C22.2767 119.371 22.482 119.068 22.5753 118.676H24.1293C23.9707 119.423 23.5973 120.025 23.0093 120.482C22.4213 120.939 21.698 121.168 20.8393 121.168ZM26.5788 112.74C26.2988 112.74 26.0654 112.656 25.8788 112.488C25.7014 112.311 25.6128 112.091 25.6128 111.83C25.6128 111.569 25.7014 111.354 25.8788 111.186C26.0654 111.009 26.2988 110.92 26.5788 110.92C26.8588 110.92 27.0874 111.009 27.2648 111.186C27.4514 111.354 27.5448 111.569 27.5448 111.83C27.5448 112.091 27.4514 112.311 27.2648 112.488C27.0874 112.656 26.8588 112.74 26.5788 112.74ZM25.8368 121V114.056H27.3208V121H25.8368ZM31.6318 121.168C31.0438 121.168 30.5585 121.07 30.1758 120.874C29.7931 120.678 29.5085 120.421 29.3218 120.104C29.1351 119.777 29.0418 119.423 29.0418 119.04C29.0418 118.368 29.3031 117.836 29.8258 117.444C30.3485 117.052 31.0951 116.856 32.0658 116.856H33.8858V116.73C33.8858 116.189 33.7365 115.783 33.4378 115.512C33.1485 115.241 32.7705 115.106 32.3038 115.106C31.8931 115.106 31.5338 115.209 31.2258 115.414C30.9271 115.61 30.7451 115.904 30.6798 116.296H29.1958C29.2425 115.792 29.4105 115.363 29.6998 115.008C29.9985 114.644 30.3718 114.369 30.8198 114.182C31.2771 113.986 31.7765 113.888 32.3178 113.888C33.2885 113.888 34.0398 114.145 34.5718 114.658C35.1038 115.162 35.3698 115.853 35.3698 116.73V121H34.0818L33.9558 119.81C33.7598 120.193 33.4751 120.515 33.1018 120.776C32.7285 121.037 32.2385 121.168 31.6318 121.168ZM31.9258 119.964C32.3271 119.964 32.6631 119.871 32.9338 119.684C33.2138 119.488 33.4285 119.231 33.5778 118.914C33.7365 118.597 33.8345 118.247 33.8718 117.864H32.2198C31.6318 117.864 31.2118 117.967 30.9598 118.172C30.7171 118.377 30.5958 118.634 30.5958 118.942C30.5958 119.259 30.7125 119.511 30.9458 119.698C31.1885 119.875 31.5151 119.964 31.9258 119.964ZM37.1001 121V110.92H38.5841V121H37.1001ZM44.0467 121V111.2H45.7967L49.1147 117.724L52.4187 111.2H54.1687V121H52.6847V113.762L49.6887 119.6H48.5407L45.5307 113.776V121H44.0467ZM59.352 121.168C58.6707 121.168 58.064 121.019 57.532 120.72C57.0093 120.412 56.5987 119.987 56.3 119.446C56.0013 118.905 55.852 118.275 55.852 117.556C55.852 116.828 55.9967 116.189 56.286 115.638C56.5847 115.087 56.9953 114.658 57.518 114.35C58.05 114.042 58.666 113.888 59.366 113.888C60.0473 113.888 60.64 114.042 61.144 114.35C61.648 114.649 62.04 115.05 62.32 115.554C62.6 116.058 62.74 116.613 62.74 117.22C62.74 117.313 62.7353 117.416 62.726 117.528C62.726 117.631 62.7213 117.747 62.712 117.878H57.308C57.3547 118.55 57.574 119.063 57.966 119.418C58.3673 119.763 58.8293 119.936 59.352 119.936C59.772 119.936 60.122 119.843 60.402 119.656C60.6913 119.46 60.906 119.199 61.046 118.872H62.53C62.3433 119.525 61.97 120.071 61.41 120.51C60.8593 120.949 60.1733 121.168 59.352 121.168ZM59.352 115.106C58.8573 115.106 58.4187 115.255 58.036 115.554C57.6533 115.843 57.42 116.282 57.336 116.87H61.256C61.228 116.329 61.0367 115.899 60.682 115.582C60.3273 115.265 59.884 115.106 59.352 115.106ZM67.4438 121.168C66.7718 121.168 66.1791 121.009 65.6658 120.692C65.1525 120.375 64.7511 119.941 64.4618 119.39C64.1725 118.839 64.0278 118.214 64.0278 117.514C64.0278 116.814 64.1725 116.193 64.4618 115.652C64.7511 115.101 65.1525 114.672 65.6658 114.364C66.1885 114.047 66.7858 113.888 67.4578 113.888C68.0085 113.888 68.4891 113.995 68.8998 114.21C69.3198 114.425 69.6465 114.728 69.8798 115.12V110.92H71.3638V121H70.0338L69.8798 119.922C69.6558 120.249 69.3478 120.538 68.9558 120.79C68.5638 121.042 68.0598 121.168 67.4438 121.168ZM67.7098 119.88C68.3445 119.88 68.8625 119.661 69.2638 119.222C69.6745 118.783 69.8798 118.219 69.8798 117.528C69.8798 116.828 69.6745 116.263 69.2638 115.834C68.8625 115.395 68.3445 115.176 67.7098 115.176C67.0751 115.176 66.5525 115.395 66.1418 115.834C65.7311 116.263 65.5258 116.828 65.5258 117.528C65.5258 117.985 65.6191 118.391 65.8058 118.746C65.9925 119.101 66.2491 119.381 66.5758 119.586C66.9118 119.782 67.2898 119.88 67.7098 119.88ZM74.0749 112.74C73.7949 112.74 73.5615 112.656 73.3749 112.488C73.1975 112.311 73.1089 112.091 73.1089 111.83C73.1089 111.569 73.1975 111.354 73.3749 111.186C73.5615 111.009 73.7949 110.92 74.0749 110.92C74.3549 110.92 74.5835 111.009 74.7609 111.186C74.9475 111.354 75.0409 111.569 75.0409 111.83C75.0409 112.091 74.9475 112.311 74.7609 112.488C74.5835 112.656 74.3549 112.74 74.0749 112.74ZM73.3329 121V114.056H74.8169V121H73.3329ZM79.1279 121.168C78.5399 121.168 78.0546 121.07 77.6719 120.874C77.2892 120.678 77.0046 120.421 76.8179 120.104C76.6312 119.777 76.5379 119.423 76.5379 119.04C76.5379 118.368 76.7992 117.836 77.3219 117.444C77.8446 117.052 78.5912 116.856 79.5619 116.856H81.3819V116.73C81.3819 116.189 81.2326 115.783 80.9339 115.512C80.6446 115.241 80.2666 115.106 79.7999 115.106C79.3892 115.106 79.0299 115.209 78.7219 115.414C78.4232 115.61 78.2412 115.904 78.1759 116.296H76.6919C76.7386 115.792 76.9066 115.363 77.1959 115.008C77.4946 114.644 77.8679 114.369 78.3159 114.182C78.7732 113.986 79.2726 113.888 79.8139 113.888C80.7846 113.888 81.5359 114.145 82.0679 114.658C82.5999 115.162 82.8659 115.853 82.8659 116.73V121H81.5779L81.4519 119.81C81.2559 120.193 80.9712 120.515 80.5979 120.776C80.2246 121.037 79.7346 121.168 79.1279 121.168ZM79.4219 119.964C79.8232 119.964 80.1592 119.871 80.4299 119.684C80.7099 119.488 80.9246 119.231 81.0739 118.914C81.2326 118.597 81.3306 118.247 81.3679 117.864H79.7159C79.1279 117.864 78.7079 117.967 78.4559 118.172C78.2132 118.377 78.0919 118.634 78.0919 118.942C78.0919 119.259 78.2086 119.511 78.4419 119.698C78.6846 119.875 79.0112 119.964 79.4219 119.964Z" fill="#FEFEFE"/>
<path d="M122.614 125H113.993C113.445 125 113 124.555 113 124.006V107.993C113 107.445 113.445 107 113.993 107H130.007C130.555 107 131 107.445 131 107.993V124.006C131 124.555 130.555 125 130.007 125H125.42V118.029H127.759L128.11 115.313H125.42V113.578C125.42 112.792 125.638 112.256 126.766 112.256L128.204 112.255V109.826C127.956 109.793 127.102 109.719 126.108 109.719C124.034 109.719 122.614 110.985 122.614 113.309V115.313H120.269V118.029H122.614V125Z" fill="#FFF9BD"/>
<path d="M179 110.776C178.339 111.077 177.627 111.281 176.88 111.372C177.642 110.904 178.228 110.161 178.503 109.277C177.789 109.711 177 110.026 176.157 110.195C175.485 109.459 174.525 109 173.462 109C171.424 109 169.77 110.696 169.77 112.787C169.77 113.083 169.802 113.372 169.865 113.649C166.796 113.491 164.076 111.985 162.253 109.691C161.935 110.252 161.753 110.904 161.753 111.597C161.753 112.91 162.405 114.069 163.396 114.749C162.792 114.73 162.221 114.558 161.723 114.276V114.323C161.723 116.158 162.996 117.689 164.686 118.036C164.377 118.125 164.05 118.169 163.713 118.169C163.475 118.169 163.243 118.146 163.018 118.102C163.488 119.606 164.851 120.701 166.468 120.73C165.204 121.746 163.611 122.352 161.881 122.352C161.583 122.352 161.288 122.335 161 122.3C162.634 123.373 164.576 124 166.661 124C173.454 124 177.168 118.231 177.168 113.226C177.168 113.062 177.165 112.897 177.158 112.736C177.88 112.202 178.507 111.535 179 110.776Z" fill="#FFF9BD"/>
<path fill-rule="evenodd" clip-rule="evenodd" d="M211.119 111.771H211.093C209.823 111.771 209 110.94 209 109.887C209 108.813 209.848 108 211.143 108C212.437 108 213.233 108.811 213.259 109.884C213.259 110.937 212.437 111.771 211.119 111.771ZM227 124H223.022V118.375C223.022 116.903 222.399 115.898 221.031 115.898C219.984 115.898 219.402 116.576 219.131 117.23C219.042 117.437 219.044 117.715 219.045 118.001V118.001C219.045 118.04 219.046 118.079 219.046 118.118V124H215.104C215.104 124 215.155 114.036 215.104 113.131H219.046V114.837C219.278 114.091 220.538 113.026 222.548 113.026C225.041 113.026 227 114.59 227 117.956V124ZM212.962 113.131H209.454V124H212.962V113.131Z" fill="#FFF9BD"/>
<path fill-rule="evenodd" clip-rule="evenodd" d="M274.104 110.97C274.644 111.531 274.82 112.804 274.82 112.804C274.82 112.804 275 114.3 275 115.796V117.198C275 118.694 274.82 120.189 274.82 120.189C274.82 120.189 274.644 121.463 274.104 122.024C273.488 122.687 272.804 122.756 272.417 122.795C272.375 122.799 272.336 122.803 272.301 122.807C269.782 122.994 266 123 266 123C266 123 261.32 122.956 259.88 122.814C259.812 122.801 259.729 122.791 259.635 122.779C259.179 122.723 258.463 122.635 257.895 122.024C257.356 121.463 257.18 120.189 257.18 120.189C257.18 120.189 257 118.694 257 117.198V115.796C257 114.3 257.18 112.804 257.18 112.804C257.18 112.804 257.356 111.531 257.895 110.97C258.513 110.305 259.198 110.238 259.584 110.199C259.626 110.195 259.664 110.191 259.699 110.187C262.218 110 265.996 110 265.996 110H266.004C266.004 110 269.782 110 272.301 110.187C272.336 110.191 272.374 110.195 272.416 110.199C272.802 110.238 273.487 110.305 274.104 110.97ZM264.141 113.704L264.141 118.897L269.004 116.31L264.141 113.704Z" fill="#FFF9BD"/>
<path fill-rule="evenodd" clip-rule="evenodd" d="M314 107C311.556 107 311.249 107.01 310.289 107.054C309.331 107.098 308.677 107.25 308.105 107.473C307.513 107.702 307.011 108.01 306.511 108.511C306.01 109.011 305.702 109.513 305.473 110.105C305.25 110.677 305.098 111.331 305.054 112.289C305.01 113.249 305 113.556 305 116C305 118.444 305.01 118.751 305.054 119.711C305.098 120.669 305.25 121.323 305.473 121.895C305.702 122.487 306.01 122.989 306.511 123.489C307.011 123.99 307.513 124.298 308.105 124.528C308.677 124.75 309.331 124.902 310.289 124.946C311.249 124.99 311.556 125 314 125C316.444 125 316.751 124.99 317.711 124.946C318.669 124.902 319.323 124.75 319.895 124.528C320.487 124.298 320.989 123.99 321.489 123.489C321.99 122.989 322.298 122.487 322.528 121.895C322.75 121.323 322.902 120.669 322.946 119.711C322.99 118.751 323 118.444 323 116C323 113.556 322.99 113.249 322.946 112.289C322.902 111.331 322.75 110.677 322.528 110.105C322.298 109.513 321.99 109.011 321.489 108.511C320.989 108.01 320.487 107.702 319.895 107.473C319.323 107.25 318.669 107.098 317.711 107.054C316.751 107.01 316.444 107 314 107ZM314 108.622C316.403 108.622 316.688 108.631 317.637 108.674C318.514 108.714 318.991 108.861 319.308 108.984C319.728 109.147 320.028 109.342 320.343 109.657C320.658 109.972 320.853 110.272 321.016 110.692C321.139 111.009 321.286 111.486 321.326 112.363C321.369 113.312 321.378 113.597 321.378 116C321.378 118.403 321.369 118.688 321.326 119.637C321.286 120.514 321.139 120.991 321.016 121.308C320.853 121.728 320.658 122.028 320.343 122.343C320.028 122.658 319.728 122.853 319.308 123.016C318.991 123.139 318.514 123.286 317.637 123.326C316.688 123.369 316.403 123.378 314 123.378C311.597 123.378 311.312 123.369 310.363 123.326C309.486 123.286 309.009 123.139 308.692 123.016C308.272 122.853 307.972 122.658 307.657 122.343C307.342 122.028 307.147 121.728 306.984 121.308C306.861 120.991 306.714 120.514 306.674 119.637C306.631 118.688 306.622 118.403 306.622 116C306.622 113.597 306.631 113.312 306.674 112.363C306.714 111.486 306.861 111.009 306.984 110.692C307.147 110.272 307.342 109.972 307.657 109.657C307.972 109.342 308.272 109.147 308.692 108.984C309.009 108.861 309.486 108.714 310.363 108.674C311.312 108.631 311.597 108.622 314 108.622ZM309.378 116C309.378 113.448 311.448 111.378 314 111.378C316.552 111.378 318.622 113.448 318.622 116C318.622 118.552 316.552 120.622 314 120.622C311.448 120.622 309.378 118.552 309.378 116ZM314 119C312.343 119 311 117.657 311 116C311 114.343 312.343 113 314 113C315.657 113 317 114.343 317 116C317 117.657 315.657 119 314 119ZM318.804 112.276C319.401 112.276 319.884 111.792 319.884 111.196C319.884 110.599 319.401 110.116 318.804 110.116C318.208 110.116 317.724 110.599 317.724 111.196C317.724 111.792 318.208 112.276 318.804 112.276Z" fill="#FFF9BD"/>
<path fill-rule="evenodd" clip-rule="evenodd" d="M361.808 117.586C360.913 117.586 358.717 117.589 358.717 117.589V115.411H364.208C364.59 118.047 363.436 122 358.717 122C355.56 122 353 119.538 353 116.5C353 113.462 355.56 111 358.717 111C360.199 111 361.548 111.542 362.564 112.432C361.777 113.147 361.525 113.419 361.31 113.651C361.199 113.771 361.098 113.881 360.937 114.035C360.349 113.568 359.709 113.233 358.717 113.233C356.841 113.233 355.377 114.696 355.377 116.5C355.377 118.304 356.841 119.767 358.717 119.767C360.57 119.767 361.323 118.998 361.808 117.586ZM369.019 113.614V115.52H371V116.881H369.019V118.842H367.604V116.881H365.566V115.52H367.604V113.614H369.019Z" fill="#FFF9BD"/>
<path d="M410.001 107C405.03 107 401 111.029 401 116.001C401 119.685 403.216 122.851 406.388 124.243C406.363 123.616 406.384 122.86 406.544 122.176C406.717 121.446 407.702 117.273 407.702 117.273C407.702 117.273 407.415 116.698 407.415 115.848C407.415 114.515 408.189 113.519 409.151 113.519C409.969 113.519 410.365 114.134 410.365 114.87C410.365 115.693 409.84 116.923 409.57 118.063C409.344 119.019 410.048 119.797 410.99 119.797C412.695 119.797 413.844 117.607 413.844 115.012C413.844 113.04 412.515 111.564 410.099 111.564C407.369 111.564 405.669 113.599 405.669 115.872C405.669 116.658 405.899 117.21 406.261 117.638C406.428 117.836 406.451 117.914 406.39 118.141C406.348 118.305 406.249 118.705 406.207 118.862C406.147 119.09 405.963 119.173 405.757 119.088C404.499 118.575 403.914 117.198 403.914 115.649C403.914 113.093 406.07 110.026 410.346 110.026C413.782 110.026 416.044 112.514 416.044 115.182C416.044 118.713 414.082 121.351 411.187 121.351C410.216 121.351 409.302 120.826 408.989 120.23C408.989 120.23 408.466 122.303 408.356 122.703C408.165 123.397 407.792 124.091 407.45 124.631C408.259 124.87 409.115 125 410.001 125C414.971 125 419 120.971 419 116.001C419 111.029 414.971 107 410.001 107Z" fill="#FFF9BD"/>
<path fill-rule="evenodd" clip-rule="evenodd" d="M467 125H463.572C463.572 116.965 457.035 110.428 449 110.428V107C458.925 107 467 115.075 467 125ZM449 122.429C449 121.008 450.152 119.857 451.572 119.857C452.992 119.857 454.143 121.008 454.143 122.429C454.143 123.849 452.992 125 451.572 125C450.152 125 449 123.849 449 122.429ZM457.572 125H461C461 118.383 455.617 113 449 113V116.429C453.726 116.429 457.572 120.274 457.572 125Z" fill="#FFF9BD"/>
</svg>
