<svg width="420" height="65" viewBox="0 0 420 65" fill="none" xmlns="http://www.w3.org/2000/svg">
<path d="M0 31C0 13.8792 13.8792 0 31 0H143C160.121 0 174 13.8792 174 31C174 48.1208 160.121 62 143 62H31C13.8792 62 0 48.1208 0 31Z" fill="#1A5D1A"/>
<path d="M52.772 37.112C51.7373 37.112 50.7827 36.872 49.908 36.392C49.044 35.9013 48.356 35.224 47.844 34.36C47.3427 33.4853 47.092 32.504 47.092 31.416C47.092 30.328 47.3427 29.352 47.844 28.488C48.356 27.624 49.044 26.952 49.908 26.472C50.7827 25.9813 51.7373 25.736 52.772 25.736C53.8173 25.736 54.772 25.9813 55.636 26.472C56.5107 26.952 57.1987 27.624 57.7 28.488C58.2013 29.352 58.452 30.328 58.452 31.416C58.452 32.504 58.2013 33.4853 57.7 34.36C57.1987 35.224 56.5107 35.9013 55.636 36.392C54.772 36.872 53.8173 37.112 52.772 37.112ZM52.772 35.528C53.508 35.528 54.164 35.3627 54.74 35.032C55.316 34.6907 55.764 34.2107 56.084 33.592C56.4147 32.9627 56.58 32.2373 56.58 31.416C56.58 30.5947 56.4147 29.8747 56.084 29.256C55.764 28.6373 55.316 28.1627 54.74 27.832C54.164 27.5013 53.508 27.336 52.772 27.336C52.036 27.336 51.38 27.5013 50.804 27.832C50.228 28.1627 49.7747 28.6373 49.444 29.256C49.124 29.8747 48.964 30.5947 48.964 31.416C48.964 32.2373 49.124 32.9627 49.444 33.592C49.7747 34.2107 50.228 34.6907 50.804 35.032C51.38 35.3627 52.036 35.528 52.772 35.528ZM62.2209 29.464C62.4875 29.016 62.8395 28.6693 63.2769 28.424C63.7249 28.168 64.2529 28.04 64.8609 28.04V29.928H64.3969C63.6822 29.928 63.1382 30.1093 62.7649 30.472C62.4022 30.8347 62.2209 31.464 62.2209 32.36V37H60.3969V28.184H62.2209V29.464ZM66.0795 32.552C66.0795 31.6667 66.2608 30.8827 66.6235 30.2C66.9968 29.5173 67.4982 28.9893 68.1275 28.616C68.7675 28.232 69.4768 28.04 70.2555 28.04C70.8315 28.04 71.3968 28.168 71.9515 28.424C72.5168 28.6693 72.9648 29 73.2955 29.416V25.16H75.1355V37H73.2955V35.672C72.9968 36.0987 72.5808 36.4507 72.0475 36.728C71.5248 37.0053 70.9222 37.144 70.2395 37.144C69.4715 37.144 68.7675 36.952 68.1275 36.568C67.4982 36.1733 66.9968 35.6293 66.6235 34.936C66.2608 34.232 66.0795 33.4373 66.0795 32.552ZM73.2955 32.584C73.2955 31.976 73.1675 31.448 72.9115 31C72.6662 30.552 72.3408 30.2107 71.9355 29.976C71.5302 29.7413 71.0928 29.624 70.6235 29.624C70.1542 29.624 69.7168 29.7413 69.3115 29.976C68.9062 30.2 68.5755 30.536 68.3195 30.984C68.0742 31.4213 67.9515 31.944 67.9515 32.552C67.9515 33.16 68.0742 33.6933 68.3195 34.152C68.5755 34.6107 68.9062 34.9627 69.3115 35.208C69.7275 35.4427 70.1648 35.56 70.6235 35.56C71.0928 35.56 71.5302 35.4427 71.9355 35.208C72.3408 34.9733 72.6662 34.632 72.9115 34.184C73.1675 33.7253 73.2955 33.192 73.2955 32.584ZM85.7613 32.376C85.7613 32.7067 85.7399 33.0053 85.6973 33.272H78.9613C79.0146 33.976 79.2759 34.5413 79.7453 34.968C80.2146 35.3947 80.7906 35.608 81.4733 35.608C82.4546 35.608 83.1479 35.1973 83.5533 34.376H85.5213C85.2546 35.1867 84.7693 35.8533 84.0653 36.376C83.3719 36.888 82.5079 37.144 81.4733 37.144C80.6306 37.144 79.8733 36.9573 79.2013 36.584C78.5399 36.2 78.0173 35.6667 77.6333 34.984C77.2599 34.2907 77.0733 33.4907 77.0733 32.584C77.0733 31.6773 77.2546 30.8827 77.6173 30.2C77.9906 29.5067 78.5079 28.9733 79.1693 28.6C79.8413 28.2267 80.6093 28.04 81.4733 28.04C82.3053 28.04 83.0466 28.2213 83.6973 28.584C84.3479 28.9467 84.8546 29.4587 85.2173 30.12C85.5799 30.7707 85.7613 31.5227 85.7613 32.376ZM83.8573 31.8C83.8466 31.128 83.6066 30.5893 83.1373 30.184C82.6679 29.7787 82.0866 29.576 81.3933 29.576C80.7639 29.576 80.2253 29.7787 79.7773 30.184C79.3293 30.5787 79.0626 31.1173 78.9773 31.8H83.8573ZM89.5302 29.464C89.7969 29.016 90.1489 28.6693 90.5862 28.424C91.0342 28.168 91.5622 28.04 92.1702 28.04V29.928H91.7062C90.9916 29.928 90.4476 30.1093 90.0742 30.472C89.7116 30.8347 89.5302 31.464 89.5302 32.36V37H87.7062V28.184H89.5302V29.464Z" fill="#FEFEFE"/>
<path d="M105.5 31H125.5M125.5 31L116.5 22M125.5 31L116.5 40" stroke="#FEFEFE" stroke-width="2"/>
<path d="M0 0H174H0ZM176 32.5C176 50.4493 161.449 65 143.5 65H34C15.2223 65 0 49.7777 0 31C0 46.464 13.8792 59 31 59H143C159.016 59 172 46.464 172 31L176 32.5ZM0 62V0V62ZM143.5 0C161.449 0 176 14.5507 176 32.5C176 50.4493 161.449 65 143.5 65L143 59C159.016 59 172 46.464 172 31C172 13.8792 159.016 0 143 0H143.5Z" fill="#FFD12D"/>
<g clip-path="url(#clip0_1_62)">
<path d="M265 7C271.365 7 277.47 9.52856 281.971 14.0294C286.471 18.5303 289 24.6348 289 31C289 37.3652 286.471 43.4697 281.971 47.9706C277.47 52.4714 271.365 55 265 55C258.635 55 252.53 52.4714 248.029 47.9706C243.529 43.4697 241 37.3652 241 31C241 24.6348 243.529 18.5303 248.029 14.0294C252.53 9.52856 258.635 7 265 7ZM265 50.5C270.172 50.5 275.132 48.4455 278.789 44.7886C282.446 41.1316 284.5 36.1717 284.5 31C284.5 25.8283 282.446 20.8684 278.789 17.2114C275.132 13.5545 270.172 11.5 265 11.5C259.828 11.5 254.868 13.5545 251.211 17.2114C247.554 20.8684 245.5 25.8283 245.5 31C245.5 36.1717 247.554 41.1316 251.211 44.7886C254.868 48.4455 259.828 50.5 265 50.5Z" fill="#1A5D1A"/>
<path d="M268 31L256 22V40L268 31ZM274 22H268V40H274V22Z" fill="#1A5D1A"/>
</g>
<path d="M313.08 23.88V35H311.256V30.136H306.024V35H304.2V23.88H306.024V28.648H311.256V23.88H313.08ZM319.455 35.144C318.623 35.144 317.871 34.9573 317.199 34.584C316.527 34.2 315.999 33.6667 315.615 32.984C315.231 32.2907 315.039 31.4907 315.039 30.584C315.039 29.688 315.237 28.8933 315.631 28.2C316.026 27.5067 316.565 26.9733 317.247 26.6C317.93 26.2267 318.693 26.04 319.535 26.04C320.378 26.04 321.141 26.2267 321.823 26.6C322.506 26.9733 323.045 27.5067 323.439 28.2C323.834 28.8933 324.031 29.688 324.031 30.584C324.031 31.48 323.829 32.2747 323.423 32.968C323.018 33.6613 322.463 34.2 321.759 34.584C321.066 34.9573 320.298 35.144 319.455 35.144ZM319.455 33.56C319.925 33.56 320.362 33.448 320.767 33.224C321.183 33 321.519 32.664 321.775 32.216C322.031 31.768 322.159 31.224 322.159 30.584C322.159 29.944 322.037 29.4053 321.791 28.968C321.546 28.52 321.221 28.184 320.815 27.96C320.41 27.736 319.973 27.624 319.503 27.624C319.034 27.624 318.597 27.736 318.191 27.96C317.797 28.184 317.482 28.52 317.247 28.968C317.013 29.4053 316.895 29.944 316.895 30.584C316.895 31.5333 317.135 32.2693 317.615 32.792C318.106 33.304 318.719 33.56 319.455 33.56ZM337.824 26.184L335.088 35H333.168L331.392 28.488L329.616 35H327.696L324.944 26.184H326.8L328.64 33.272L330.512 26.184H332.416L334.208 33.24L336.032 26.184H337.824ZM345.772 27.672V32.552C345.772 32.8827 345.846 33.1227 345.996 33.272C346.156 33.4107 346.422 33.48 346.796 33.48H347.916V35H346.476C345.654 35 345.025 34.808 344.588 34.424C344.15 34.04 343.932 33.416 343.932 32.552V27.672H342.892V26.184H343.932V23.992H345.772V26.184H347.916V27.672H345.772ZM353.571 35.144C352.739 35.144 351.987 34.9573 351.315 34.584C350.643 34.2 350.115 33.6667 349.731 32.984C349.347 32.2907 349.155 31.4907 349.155 30.584C349.155 29.688 349.352 28.8933 349.747 28.2C350.142 27.5067 350.68 26.9733 351.363 26.6C352.046 26.2267 352.808 26.04 353.651 26.04C354.494 26.04 355.256 26.2267 355.939 26.6C356.622 26.9733 357.16 27.5067 357.555 28.2C357.95 28.8933 358.147 29.688 358.147 30.584C358.147 31.48 357.944 32.2747 357.539 32.968C357.134 33.6613 356.579 34.2 355.875 34.584C355.182 34.9573 354.414 35.144 353.571 35.144ZM353.571 33.56C354.04 33.56 354.478 33.448 354.883 33.224C355.299 33 355.635 32.664 355.891 32.216C356.147 31.768 356.275 31.224 356.275 30.584C356.275 29.944 356.152 29.4053 355.907 28.968C355.662 28.52 355.336 28.184 354.931 27.96C354.526 27.736 354.088 27.624 353.619 27.624C353.15 27.624 352.712 27.736 352.307 27.96C351.912 28.184 351.598 28.52 351.363 28.968C351.128 29.4053 351.011 29.944 351.011 30.584C351.011 31.5333 351.251 32.2693 351.731 32.792C352.222 33.304 352.835 33.56 353.571 33.56ZM369.478 35.112C368.444 35.112 367.489 34.872 366.614 34.392C365.75 33.9013 365.062 33.224 364.55 32.36C364.049 31.4853 363.798 30.504 363.798 29.416C363.798 28.328 364.049 27.352 364.55 26.488C365.062 25.624 365.75 24.952 366.614 24.472C367.489 23.9813 368.444 23.736 369.478 23.736C370.524 23.736 371.478 23.9813 372.342 24.472C373.217 24.952 373.905 25.624 374.406 26.488C374.908 27.352 375.158 28.328 375.158 29.416C375.158 30.504 374.908 31.4853 374.406 32.36C373.905 33.224 373.217 33.9013 372.342 34.392C371.478 34.872 370.524 35.112 369.478 35.112ZM369.478 33.528C370.214 33.528 370.87 33.3627 371.446 33.032C372.022 32.6907 372.47 32.2107 372.79 31.592C373.121 30.9627 373.286 30.2373 373.286 29.416C373.286 28.5947 373.121 27.8747 372.79 27.256C372.47 26.6373 372.022 26.1627 371.446 25.832C370.87 25.5013 370.214 25.336 369.478 25.336C368.742 25.336 368.086 25.5013 367.51 25.832C366.934 26.1627 366.481 26.6373 366.15 27.256C365.83 27.8747 365.67 28.5947 365.67 29.416C365.67 30.2373 365.83 30.9627 366.15 31.592C366.481 32.2107 366.934 32.6907 367.51 33.032C368.086 33.3627 368.742 33.528 369.478 33.528ZM378.927 27.464C379.194 27.016 379.546 26.6693 379.983 26.424C380.431 26.168 380.959 26.04 381.567 26.04V27.928H381.103C380.388 27.928 379.844 28.1093 379.471 28.472C379.108 28.8347 378.927 29.464 378.927 30.36V35H377.103V26.184H378.927V27.464ZM382.786 30.552C382.786 29.6667 382.967 28.8827 383.33 28.2C383.703 27.5173 384.204 26.9893 384.834 26.616C385.474 26.232 386.183 26.04 386.962 26.04C387.538 26.04 388.103 26.168 388.658 26.424C389.223 26.6693 389.671 27 390.002 27.416V23.16H391.842V35H390.002V33.672C389.703 34.0987 389.287 34.4507 388.754 34.728C388.231 35.0053 387.628 35.144 386.946 35.144C386.178 35.144 385.474 34.952 384.834 34.568C384.204 34.1733 383.703 33.6293 383.33 32.936C382.967 32.232 382.786 31.4373 382.786 30.552ZM390.002 30.584C390.002 29.976 389.874 29.448 389.618 29C389.372 28.552 389.047 28.2107 388.642 27.976C388.236 27.7413 387.799 27.624 387.33 27.624C386.86 27.624 386.423 27.7413 386.018 27.976C385.612 28.2 385.282 28.536 385.026 28.984C384.78 29.4213 384.658 29.944 384.658 30.552C384.658 31.16 384.78 31.6933 385.026 32.152C385.282 32.6107 385.612 32.9627 386.018 33.208C386.434 33.4427 386.871 33.56 387.33 33.56C387.799 33.56 388.236 33.4427 388.642 33.208C389.047 32.9733 389.372 32.632 389.618 32.184C389.874 31.7253 390.002 31.192 390.002 30.584ZM402.468 30.376C402.468 30.7067 402.446 31.0053 402.404 31.272H395.668C395.721 31.976 395.982 32.5413 396.452 32.968C396.921 33.3947 397.497 33.608 398.18 33.608C399.161 33.608 399.854 33.1973 400.26 32.376H402.227C401.961 33.1867 401.476 33.8533 400.772 34.376C400.078 34.888 399.214 35.144 398.18 35.144C397.337 35.144 396.58 34.9573 395.908 34.584C395.246 34.2 394.724 33.6667 394.34 32.984C393.966 32.2907 393.78 31.4907 393.78 30.584C393.78 29.6773 393.961 28.8827 394.324 28.2C394.697 27.5067 395.214 26.9733 395.876 26.6C396.548 26.2267 397.316 26.04 398.18 26.04C399.012 26.04 399.753 26.2213 400.404 26.584C401.054 26.9467 401.561 27.4587 401.924 28.12C402.286 28.7707 402.468 29.5227 402.468 30.376ZM400.564 29.8C400.553 29.128 400.313 28.5893 399.844 28.184C399.374 27.7787 398.793 27.576 398.1 27.576C397.47 27.576 396.932 27.7787 396.484 28.184C396.036 28.5787 395.769 29.1173 395.684 29.8H400.564ZM406.237 27.464C406.503 27.016 406.855 26.6693 407.293 26.424C407.741 26.168 408.269 26.04 408.877 26.04V27.928H408.413C407.698 27.928 407.154 28.1093 406.781 28.472C406.418 28.8347 406.237 29.464 406.237 30.36V35H404.413V26.184H406.237V27.464Z" fill="#1A5D1A"/>
<defs>
<clipPath id="clip0_1_62">
<rect width="48" height="48" fill="white" transform="translate(241 7)"/>
</clipPath>
</defs>
</svg>
