<svg width="163" height="52" viewBox="0 0 163 52" fill="none" xmlns="http://www.w3.org/2000/svg">
<rect width="163" height="52" rx="16" fill="#1A5D1A"/>
<path d="M56.864 32.112C56.1173 32.112 55.4453 31.984 54.848 31.728C54.2507 31.4613 53.7813 31.088 53.44 30.608C53.0987 30.128 52.928 29.568 52.928 28.928H54.88C54.9227 29.408 55.1093 29.8027 55.44 30.112C55.7813 30.4213 56.256 30.576 56.864 30.576C57.4933 30.576 57.984 30.4267 58.336 30.128C58.688 29.8187 58.864 29.424 58.864 28.944C58.864 28.5707 58.752 28.2667 58.528 28.032C58.3147 27.7973 58.0427 27.616 57.712 27.488C57.392 27.36 56.944 27.2213 56.368 27.072C55.6427 26.88 55.0507 26.688 54.592 26.496C54.144 26.2933 53.76 25.984 53.44 25.568C53.12 25.152 52.96 24.5973 52.96 23.904C52.96 23.264 53.12 22.704 53.44 22.224C53.76 21.744 54.208 21.376 54.784 21.12C55.36 20.864 56.0267 20.736 56.784 20.736C57.8613 20.736 58.7413 21.008 59.424 21.552C60.1173 22.0853 60.5013 22.8213 60.576 23.76H58.56C58.528 23.3547 58.336 23.008 57.984 22.72C57.632 22.432 57.168 22.288 56.592 22.288C56.0693 22.288 55.6427 22.4213 55.312 22.688C54.9813 22.9547 54.816 23.3387 54.816 23.84C54.816 24.1813 54.9173 24.464 55.12 24.688C55.3333 24.9013 55.6 25.072 55.92 25.2C56.24 25.328 56.6773 25.4667 57.232 25.616C57.968 25.8187 58.5653 26.0213 59.024 26.224C59.4933 26.4267 59.888 26.7413 60.208 27.168C60.5387 27.584 60.704 28.144 60.704 28.848C60.704 29.4133 60.5493 29.9467 60.24 30.448C59.9413 30.9493 59.4987 31.3547 58.912 31.664C58.336 31.9627 57.6533 32.112 56.864 32.112ZM70.9902 23.184V32H69.1662V30.96C68.8782 31.3227 68.4996 31.6107 68.0303 31.824C67.5716 32.0267 67.0809 32.128 66.5582 32.128C65.8649 32.128 65.2409 31.984 64.6862 31.696C64.1422 31.408 63.7102 30.9813 63.3902 30.416C63.0809 29.8507 62.9262 29.168 62.9262 28.368V23.184H64.7342V28.096C64.7342 28.8853 64.9316 29.4933 65.3262 29.92C65.7209 30.336 66.2596 30.544 66.9422 30.544C67.6249 30.544 68.1636 30.336 68.5582 29.92C68.9636 29.4933 69.1662 28.8853 69.1662 28.096V23.184H70.9902ZM75.3709 24.496C75.6802 24.0693 76.1015 23.7227 76.6349 23.456C77.1789 23.1787 77.7815 23.04 78.4429 23.04C79.2215 23.04 79.9255 23.2267 80.5549 23.6C81.1842 23.9733 81.6802 24.5067 82.0429 25.2C82.4055 25.8827 82.5869 26.6667 82.5869 27.552C82.5869 28.4373 82.4055 29.232 82.0429 29.936C81.6802 30.6293 81.1789 31.1733 80.5389 31.568C79.9095 31.952 79.2109 32.144 78.4429 32.144C77.7602 32.144 77.1522 32.0107 76.6189 31.744C76.0962 31.4773 75.6802 31.136 75.3709 30.72V32H73.5469V20.16H75.3709V24.496ZM80.7309 27.552C80.7309 26.944 80.6029 26.4213 80.3469 25.984C80.1015 25.536 79.7709 25.2 79.3549 24.976C78.9495 24.7413 78.5122 24.624 78.0429 24.624C77.5842 24.624 77.1469 24.7413 76.7309 24.976C76.3255 25.2107 75.9949 25.552 75.7389 26C75.4935 26.448 75.3709 26.976 75.3709 27.584C75.3709 28.192 75.4935 28.7253 75.7389 29.184C75.9949 29.632 76.3255 29.9733 76.7309 30.208C77.1469 30.4427 77.5842 30.56 78.0429 30.56C78.5122 30.56 78.9495 30.4427 79.3549 30.208C79.7709 29.9627 80.1015 29.6107 80.3469 29.152C80.6029 28.6933 80.7309 28.16 80.7309 27.552ZM95.2126 23.04C95.906 23.04 96.5246 23.184 97.0686 23.472C97.6233 23.76 98.0553 24.1867 98.3646 24.752C98.6846 25.3173 98.8446 26 98.8446 26.8V32H97.0366V27.072C97.0366 26.2827 96.8393 25.68 96.4446 25.264C96.05 24.8373 95.5113 24.624 94.8286 24.624C94.146 24.624 93.602 24.8373 93.1966 25.264C92.802 25.68 92.6046 26.2827 92.6046 27.072V32H90.7966V27.072C90.7966 26.2827 90.5993 25.68 90.2046 25.264C89.81 24.8373 89.2713 24.624 88.5886 24.624C87.906 24.624 87.362 24.8373 86.9566 25.264C86.562 25.68 86.3646 26.2827 86.3646 27.072V32H84.5406V23.184H86.3646V24.192C86.6633 23.8293 87.042 23.5467 87.5006 23.344C87.9593 23.1413 88.45 23.04 88.9726 23.04C89.6766 23.04 90.306 23.1893 90.8606 23.488C91.4153 23.7867 91.842 24.2187 92.1406 24.784C92.4073 24.2507 92.8233 23.8293 93.3886 23.52C93.954 23.2 94.562 23.04 95.2126 23.04ZM102.244 22.016C101.913 22.016 101.636 21.904 101.412 21.68C101.188 21.456 101.076 21.1787 101.076 20.848C101.076 20.5173 101.188 20.24 101.412 20.016C101.636 19.792 101.913 19.68 102.244 19.68C102.564 19.68 102.836 19.792 103.06 20.016C103.284 20.24 103.396 20.5173 103.396 20.848C103.396 21.1787 103.284 21.456 103.06 21.68C102.836 21.904 102.564 22.016 102.244 22.016ZM103.14 23.184V32H101.316V23.184H103.14ZM107.812 24.672V29.552C107.812 29.8827 107.887 30.1227 108.036 30.272C108.196 30.4107 108.463 30.48 108.836 30.48H109.956V32H108.516C107.695 32 107.066 31.808 106.628 31.424C106.191 31.04 105.972 30.416 105.972 29.552V24.672H104.932V23.184H105.972V20.992H107.812V23.184H109.956V24.672H107.812Z" fill="#FEFEFE"/>
</svg>
